<?xml version="1.0" encoding="utf-8"?>
<!-- Generator: Adobe Illustrator 27.5.0, SVG Export Plug-In . SVG Version: 6.00 Build 0)  -->
<svg version="1.1" id="Capa_1" xmlns="http://www.w3.org/2000/svg" xmlns:xlink="http://www.w3.org/1999/xlink" x="0px" y="0px"
	 viewBox="0 0 425.198 367.111" style="enable-background:new 0 0 425.198 367.111;" xml:space="preserve">
<g>
	<g>
		<path style="fill:#AFBD77;" d="M139.001,126.995c-0.353-0.681-0.851-1.314-1.531-1.669c-1.122-0.586-2.546-0.296-3.588,0.423
			c-1.042,0.719-1.773,1.799-2.426,2.884c-3.041,5.045-4.934,10.767-5.56,16.622c0.369,1.394,0.728,2.791,1.078,4.19
			c2.186-3.464,6.694-10.422,9.379-13.267c1.103-1.169,2.254-2.355,2.872-3.839C139.932,130.639,139.848,128.629,139.001,126.995z"
			/>
		<g>
			<path style="fill:#7C884A;" d="M125.579,152.853c0,0-0.342-0.219-0.923-0.585c1.919,7.883,3.538,15.838,4.843,23.845
				c1.064,0.286,2.1,0.664,3.099,1.123c-2.097-13.501-5.076-26.864-8.93-39.978c-1.299-4.418-2.706-8.803-4.199-13.158
				c-0.9,0.345-1.814,0.652-2.74,0.92c2.77,8.105,5.199,16.325,7.296,24.628C124.585,150.697,125.114,151.76,125.579,152.853z"/>
			<path style="fill:#7C884A;" d="M133.187,210.668c0.093,0.135,0.289,0.21,0.539,0.234
				C133.547,210.822,133.367,210.745,133.187,210.668z"/>
		</g>
		<path style="fill:#AFBD77;" d="M103.591,134.451c0.754-1.017,2.162-1.377,3.414-1.185c1.251,0.193,2.38,0.846,3.441,1.537
			c6.677,4.347,12.018,10.717,15.134,18.05c0,0-11.29-7.24-16.251-9.125c-1.503-0.571-3.055-1.136-4.259-2.202
			c-1.377-1.22-2.178-3.066-2.128-4.905C102.962,135.854,103.135,135.067,103.591,134.451z"/>
	</g>
	<g>
		<path style="fill:#AFBD77;" d="M316.458,137.222c-0.386-5.353-2.015-10.617-4.786-15.215c-0.552-0.916-1.169-1.828-2.049-2.436
			c-0.88-0.607-2.083-0.852-3.031-0.357c-0.574,0.3-0.995,0.835-1.293,1.41c-0.715,1.38-0.786,3.077-0.189,4.512
			c0.522,1.254,1.494,2.255,2.426,3.243c2.42,2.565,6.586,9.074,8.258,11.741C316.011,139.153,316.236,138.188,316.458,137.222z"/>
		<path style="fill:#7C884A;" d="M312.284,170.971c0.884-6.014,1.962-12.001,3.117-17.948c0.73-3.756,1.506-7.505,2.321-11.245
			c-0.672,0.421-1.086,0.687-1.086,0.687c0.489-1.15,1.063-2.261,1.676-3.349c2.04-9.118,4.335-18.181,6.914-27.157
			c0.809-2.815,1.654-5.622,2.533-8.417c-0.226-1.101-0.396-2.213-0.495-3.332c-0.054-0.614-0.075-1.239-0.077-1.867
			c-3.499,10.258-6.344,20.753-8.924,31.268c-3.352,13.659-6.213,27.465-8.259,41.383c-0.102,0.692-0.192,1.386-0.289,2.079
			C310.553,172.352,311.407,171.65,312.284,170.971z"/>
		<path style="fill:#AFBD77;" d="M335.207,126.921c-0.637-0.859-1.826-1.163-2.883-1c-1.057,0.163-2.01,0.715-2.906,1.298
			c-5.639,3.672-10.15,9.052-12.782,15.246c0,0,9.536-6.115,13.726-7.707c1.269-0.483,2.581-0.96,3.597-1.86
			c1.163-1.031,1.84-2.589,1.798-4.143C335.738,128.107,335.593,127.442,335.207,126.921z"/>
		<path style="fill:#AFBD77;" d="M335.207,126.921c-0.637-0.859-1.826-1.163-2.883-1c-1.057,0.163-2.01,0.715-2.906,1.298
			c-5.639,3.672-10.15,9.052-12.782,15.246c0,0,9.536-6.115,13.726-7.707c1.269-0.483,2.581-0.96,3.597-1.86
			c1.163-1.031,1.84-2.589,1.798-4.143C335.738,128.107,335.593,127.442,335.207,126.921z"/>
	</g>
	<g>
		<path style="fill:#67723D;" d="M298.251,187.372c-0.466-2.116-1.131-4.182-2.263-6.018c-3.542-5.744-11.356-8.053-17.805-6.065
			c-2.426,0.748-4.631,2.023-6.557,3.657c1.599-4.028,3.716-7.85,6.308-11.323c-4.234,2.779-8.76,5.061-13.276,7.366
			c-1.743-4.686-5.034-8.837-9.305-11.316c1.614-9.242,3.515-18.433,5.71-27.555c-0.656,0.414-1.033,0.656-1.033,0.656
			c0.553-1.302,1.156-2.583,1.806-3.84c1.515-6.098,3.154-12.166,4.927-18.194c1.983-6.744,4.136-13.436,6.438-20.077
			c-0.219-1.206-0.386-2.421-0.484-3.642c-0.105-1.297-0.123-2.629-0.033-3.953c-0.278,0.286-0.581,0.547-0.867,0.825
			c-5.927,16.195-10.92,32.727-14.925,49.5c-1.951,8.174-3.662,16.404-5.144,24.676c-0.578-0.184-1.165-0.345-1.766-0.468
			c-11.205-2.301-23.219,6.894-24.365,18.163c0.246-4.925-0.379-9.964-2.713-14.284c-2.579-4.771-7.53-8.491-12.954-8.518
			c-3.652-0.018-7.137,1.58-10.164,3.623c-2.063,1.393-3.957,3.021-5.667,4.824c-2.919-17.192-6.848-34.213-11.768-50.943
			c-1.525-5.186-3.156-10.34-4.87-15.466c-1.721-2.363-3.158-4.931-4.28-7.631c-0.209,1.613-0.51,3.215-0.915,4.791
			c-0.017,0.065-0.037,0.131-0.055,0.197c4.063,11.809,7.637,23.783,10.693,35.892c0.789,1.476,1.521,2.983,2.175,4.524
			c0,0-0.465-0.298-1.259-0.798c0.137,0.564,0.28,1.126,0.415,1.69c2.529,10.594,4.639,21.286,6.382,32.037
			c-1.765,2.559-3.193,5.348-4.246,8.272c-0.479,0.263-0.956,0.527-1.431,0.797c-0.836-5.741-4.527-11.146-9.744-13.826
			c-7.27-3.734-16.684-2.268-22.937,2.992c-4.782,4.022-7.685,9.99-8.428,16.211c-1.229-0.326-2.457-0.655-3.682-0.995
			c-2.776-3.445-6.638-6.029-10.932-7.115c-1.457-0.369-2.982-0.553-4.489-0.516c3.277,3.191,6.129,6.764,8.282,10.816
			c4.069,7.657,5.114,17.286,1.911,25.155c-0.001-0.001-0.003-0.001-0.004-0.002c1.645,0.841,3.224,1.831,4.722,2.883
			c1.794-3.863,6.021-6.494,10.325-6.427c4.304,0.067,8.445,2.828,10.115,6.746c2.149-3.628,6.688-5.711,10.882-4.996
			c4.194,0.716,7.762,4.182,8.553,8.311c4.136-3.541,11.272-2.789,14.558,1.534c3.807-5.396,13.436-4.998,16.773,0.693
			c0.546-4.933,4.393-9.348,9.251-10.618c4.859-1.27,10.413,0.686,13.361,4.706c0.382-2.138,1.218-4.288,2.427-6.139c0,0,0,0,0,0
			c0.223-0.341,0.46-0.672,0.708-0.991c0.007-0.009,0.014-0.018,0.021-0.027c0.748-0.956,1.608-1.799,2.568-2.475
			c0.044-0.031,0.09-0.058,0.135-0.089c0.257-0.176,0.522-0.338,0.793-0.489c0.094-0.052,0.189-0.1,0.285-0.149
			c0.232-0.119,0.47-0.227,0.712-0.327c0.113-0.046,0.225-0.093,0.34-0.135c0.246-0.09,0.497-0.165,0.752-0.233
			c0.109-0.029,0.216-0.064,0.327-0.089c0.364-0.083,0.736-0.149,1.118-0.186c4.389-0.42,8.479,4.199,7.941,8.041
			c2.661-4.319,7.402-7.389,12.514-7.888c0.517-0.05,1.035-0.065,1.552-0.063c0.119,0,0.238,0.001,0.357,0.005
			c0.519,0.013,1.037,0.044,1.553,0.107c4.911,0.6,9.554,3.414,12.164,7.583c4.895-2.476,10.104-5.008,15.54-4.987h-0.001
			C294.343,199.643,295.498,193.039,298.251,187.372z"/>
	</g>
	<path style="fill:#AFBD77;" d="M170.98,209.695c4.068,0.694,7.539,3.979,8.467,7.944h0.571c2.725-2.017,6.514-2.362,9.708-1.21
		c2.59-3.511,4.402-7.596,5.238-11.879c0.858-4.398,0.705-8.927,1.177-13.383c0.9-8.483,4.123-16.709,9.227-23.545
		c-6.617,4.343-13.969,7.432-20.827,11.382c-6.859,3.95-13.419,8.991-17.133,15.98c-2.48,4.666-3.404,10.343-2.255,15.422
		C166.985,209.644,169.019,209.36,170.98,209.695z"/>
	<g>
		<path style="fill:#AFBD77;" d="M259.645,126.513c-0.828-8.54-3.557-16.898-7.987-24.247c-0.931-1.545-1.972-3.084-3.456-4.108
			c-1.485-1.024-3.514-1.438-5.112-0.602c-0.968,0.506-1.678,1.408-2.181,2.378c-1.206,2.327-1.326,5.191-0.319,7.611
			c0.88,2.114,2.52,3.803,4.092,5.469c3.883,4.115,10.445,14.273,13.504,19.127C258.659,130.261,259.147,128.386,259.645,126.513z"
			/>
		<path style="fill:#7C884A;" d="M252.589,181.732c0.691-5.251,1.465-10.492,2.347-15.715c1.696-10.034,3.747-20.007,6.127-29.901
			c-0.656,0.414-1.033,0.656-1.033,0.656c0.553-1.302,1.156-2.583,1.806-3.84c1.515-6.098,3.154-12.166,4.927-18.194
			c1.983-6.744,4.136-13.436,6.438-20.077c-0.219-1.206-0.386-2.421-0.484-3.642c-0.105-1.297-0.123-2.629-0.033-3.953
			c-0.278,0.286-0.581,0.547-0.867,0.825c-5.927,16.195-10.92,32.727-14.925,49.5c-3.736,15.649-6.612,31.503-8.628,47.466
			C249.651,183.75,251.1,182.709,252.589,181.732z"/>
		<path style="fill:#AFBD77;" d="M243.662,202.993c4.389-0.42,8.479,4.199,7.941,8.041c2.661-4.319,7.402-7.389,12.514-7.888
			c1.154-0.112,2.315-0.092,3.462,0.048c0.449-3.725,0.428-7.51,0.824-11.249c0.929-8.764,4.26-17.262,9.532-24.324
			c-6.836,4.487-14.431,7.678-21.517,11.758c-7.086,4.08-13.863,9.289-17.7,16.509c-1.981,3.728-2.999,8.083-2.813,12.293
			C237.718,205.405,240.378,203.308,243.662,202.993z"/>
		<g>
			<path style="fill:#EEAFA5;" d="M301.234,55.477c-2.583-0.764-5.341,0.269-7.724,1.524c-3.724,1.962-7.126,4.526-10.062,7.543
				c0.09-1.324,0.072-2.657-0.033-3.953c-0.349-4.319-1.461-8.575-3.268-12.514c-0.496-1.08-1.11-2.205-2.172-2.738
				c-0.731-0.367-1.58-0.401-2.398-0.392c-6.008,0.07-11.973,2.188-16.68,5.922c-2.389,1.895-4.59,4.528-4.506,7.575
				c0.075,2.692,1.912,4.995,3.844,6.871c1.167,1.133,2.409,2.189,3.706,3.171c-2.955-0.371-5.954-0.398-8.913-0.056
				c-1.181,0.136-2.441,0.371-3.277,1.216c-0.575,0.581-0.871,1.378-1.116,2.158c-1.796,5.733-1.632,12.061,0.458,17.694
				c1.061,2.859,2.881,5.768,5.805,6.633c2.583,0.764,5.341-0.269,7.724-1.524c3.724-1.962,7.126-4.526,10.062-7.543
				c-0.09,1.324-0.072,2.657,0.033,3.953c0.349,4.319,1.461,8.575,3.268,12.513c0.496,1.08,1.11,2.205,2.172,2.738
				c0.731,0.367,1.58,0.401,2.398,0.392c6.008-0.07,11.973-2.188,16.68-5.922c2.389-1.895,4.591-4.527,4.506-7.575
				c-0.074-2.692-1.912-4.995-3.844-6.871c-1.168-1.133-2.409-2.189-3.706-3.171c2.955,0.371,5.954,0.397,8.913,0.056
				c1.181-0.136,2.441-0.371,3.277-1.216c0.576-0.581,0.871-1.378,1.116-2.158c1.796-5.733,1.632-12.061-0.458-17.694
				C305.978,59.251,304.158,56.342,301.234,55.477z"/>
		</g>
		<path style="fill:#AFBD77;" d="M291.355,110.555c-1.074-1.449-3.08-1.962-4.863-1.688c-1.783,0.274-3.39,1.206-4.902,2.19
			c-9.512,6.193-17.12,15.268-21.56,25.715c0,0,16.084-10.314,23.151-13c2.141-0.814,4.353-1.619,6.067-3.138
			c1.962-1.739,3.103-4.368,3.032-6.988C292.251,112.554,292.005,111.433,291.355,110.555z"/>
	</g>
	<g>
		<path style="fill:#AFBD77;" d="M204.221,99.934c-0.503-0.97-1.213-1.872-2.181-2.378c-1.598-0.836-3.627-0.422-5.112,0.602
			c-1.485,1.024-2.525,2.563-3.456,4.108c-4.329,7.182-7.031,15.326-7.925,23.662c0.528,1.992,1.041,3.988,1.541,5.986
			c3.115-4.936,9.536-14.847,13.36-18.9c1.572-1.666,3.211-3.355,4.092-5.469C205.547,105.124,205.427,102.261,204.221,99.934z"/>
		<g>
			<path style="fill:#7C884A;" d="M185.099,136.772c0,0-0.465-0.298-1.259-0.798c0.137,0.564,0.28,1.126,0.415,1.69
				c2.965,12.42,5.388,24.968,7.272,37.596c1.284-0.657,2.569-1.313,3.851-1.973c-0.381-2.517-0.777-5.033-1.201-7.543
				c-2.925-17.307-6.875-34.44-11.827-51.279c-1.525-5.186-3.156-10.34-4.87-15.466c-1.721-2.363-3.158-4.931-4.28-7.631
				c-0.209,1.613-0.51,3.215-0.915,4.791c-0.017,0.065-0.037,0.131-0.055,0.197c4.063,11.809,7.637,23.783,10.693,35.892
				C183.713,133.724,184.445,135.231,185.099,136.772z"/>
		</g>
		<path style="fill:#AFBD77;" d="M153.775,110.555c1.074-1.449,3.08-1.962,4.863-1.688c1.783,0.274,3.39,1.206,4.902,2.19
			c9.512,6.193,17.12,15.268,21.56,25.715c0,0-16.084-10.314-23.151-13c-2.141-0.814-4.353-1.619-6.067-3.138
			c-1.962-1.739-3.103-4.368-3.032-6.988C152.878,112.554,153.124,111.433,153.775,110.555z"/>
	</g>
	<g>
		<g>
			<g>
				<path style="fill:#7C884A;" d="M94.954,199.554c-1.186-6.078-0.974-12.335-1.627-18.492c-0.29-2.739-0.763-5.456-1.396-8.136
					c-3.685-0.459-7.418-0.646-11.108-0.654c-10.936-0.023-21.871,1.325-32.787,0.665c10.815,4.688,20.33,12.334,27.237,21.886
					c3.494,4.832,6.347,10.135,10.17,14.703c3.048,0.874,5.767,2.911,7.311,5.658c1.24-2.322,3.711-3.642,6.38-4.027
					C97.169,207.528,95.744,203.605,94.954,199.554z"/>
			</g>
			<g>
				<path style="fill:#67723D;" d="M90.591,186.416c-1.445-0.712-2.923-1.354-4.386-2.028c0.057-0.13,0.087-0.256,0.039-0.357
					c-1.076-2.299-2.151-4.598-3.227-6.898c-0.123-0.263-1.723,0.901-1.464,1.455c0.726,1.553,1.452,3.105,2.179,4.657
					c-3.271-1.449-6.571-2.833-9.92-4.086c-3.489-1.306-7.094-2.714-10.77-3.403c-0.585-0.11-1.783,1.455-1.263,1.552
					c3.515,0.659,6.958,1.989,10.299,3.228c6.007,2.227,11.903,4.776,17.639,7.628c1.386,0.689,2.801,1.41,4.222,2.149
					c-0.043-0.759-0.083-1.519-0.122-2.278C92.733,187.482,91.654,186.939,90.591,186.416z"/>
				<path style="fill:#67723D;" d="M91.803,190.731c-3.201,0.44-6.334,1.374-9.259,2.741c-0.435,0.203-0.878,0.663-0.813,1.185
					c0.061,0.478,0.573,0.654,0.982,0.463c2.224-1.039,4.55-1.824,6.959-2.303c1.179-0.234,2.372-0.401,3.571-0.498
					c0.118-0.009,0.367-0.126,0.814-0.194c-0.037-0.533-0.072-1.066-0.103-1.6C93.234,190.574,92.516,190.633,91.803,190.731z"/>
				<path style="fill:#67723D;" d="M95.131,206.099c-0.961,0.853,0.084,1.882,1.034,1.04c0.259-0.23,0.544-0.419,0.826-0.614
					c-0.187-0.477-0.364-0.958-0.533-1.442C95.996,205.387,95.553,205.724,95.131,206.099z"/>
				<path style="fill:#67723D;" d="M121.45,209.661L121.45,209.661c-0.328,0.109-0.651,0.232-0.969,0.366
					C120.799,209.892,121.122,209.77,121.45,209.661z"/>
				<path style="fill:#67723D;" d="M119.543,210.466c0.304-0.157,0.615-0.303,0.932-0.437
					C120.158,210.163,119.848,210.309,119.543,210.466L119.543,210.466z"/>
			</g>
		</g>
		<g>
			<path style="fill:#AFBD77;" d="M94.954,199.554c0.79,4.051,2.215,7.974,4.179,11.604c1.444-0.208,2.944-0.146,4.341,0.189
				c3.98,0.955,7.307,3.569,10.493,6.111c0.851-5.042,6.259-8.41,11.435-8.48c3.34-0.045,6.548,0.984,9.538,2.513
				c3.203-7.869,2.158-17.499-1.911-25.155c-5.132-9.657-14.196-16.623-23.673-22.081c-9.477-5.457-19.635-9.725-28.778-15.726
				c7.052,9.445,11.506,20.81,12.749,32.532C93.98,187.219,93.768,193.476,94.954,199.554z"/>
			<path style="fill:#7C884A;" d="M97.66,167.076c4.104,4.919,7.952,10.062,11.512,15.389c0.932,1.396,1.876,2.832,2.813,4.298
				c-0.747-0.373-1.507-0.72-2.281-1.033c-2.996-1.21-6.178-1.957-9.397-2.226c-0.478-0.04-1.092,0.138-1.294,0.624
				c-0.185,0.445,0.172,0.853,0.622,0.89c2.446,0.204,4.855,0.68,7.182,1.462c1.14,0.383,2.258,0.831,3.346,1.343
				c0.533,0.251,5.098-0.251,12.057,19.692c-1.512-1.366-3.17-2.581-4.817-3.622c-3.673-2.321-8.054-4.092-12.453-3.176
				c-1.258,0.262-0.863,1.675,0.38,1.416c3.927-0.818,8.057,1.26,11.226,3.379c1.758,1.176,3.497,2.548,5.023,4.102
				c1.132-0.364,2.312-0.572,3.487-0.62c-0.002-5.937,3.081-12.005,7.105-16.126c0.85-0.87-1.082-1.051-1.639-0.48
				c-3.228,3.305-5.893,7.807-6.975,12.531c-1.341-3.863-3.121-7.632-5.12-11.261c0.023-0.05,0.055-0.097,0.058-0.151
				c0.313-5.47,1.191-10.888,2.621-16.177c0.215-0.794-1.802-0.52-2.001,0.219c-1.166,4.313-1.945,8.713-2.37,13.156
				c-1.92-3.247-3.958-6.37-5.946-9.321c-0.9-1.336-1.863-2.628-2.797-3.941c0.115-0.085,0.203-0.179,0.212-0.29
				c0.21-2.53,0.42-5.059,0.63-7.589c0.024-0.29-1.943-0.075-1.993,0.534c-0.142,1.708-0.284,3.416-0.426,5.124
				c-2.118-2.884-4.292-5.725-6.575-8.478c-2.378-2.868-4.805-5.882-7.652-8.308c-0.453-0.386-2.27,0.375-1.867,0.719
				C93.052,161.474,95.378,164.341,97.66,167.076z"/>
		</g>
	</g>
	<g>
		<g>
			<path style="fill:#7C884A;" d="M329.036,217.24c3.789-2.309,8.306-3.33,12.748-3.087c1.464-1.269,2.849-2.629,4.116-4.094
				c4.051-4.683,6.978-10.217,10.606-15.235c6.907-9.552,16.422-17.198,27.237-21.886c-10.916,0.66-21.851-0.688-32.787-0.665
				c-3.69,0.008-7.424,0.195-11.108,0.654c-0.633,2.68-1.106,5.397-1.396,8.136c-0.653,6.158-0.441,12.414-1.627,18.492
				c-1.24,6.356-4.04,12.392-8.054,17.473C328.858,217.1,328.951,217.164,329.036,217.24z"/>
			<path style="fill:#7C884A;" d="M331.471,183.505c0.478-0.04,1.092,0.138,1.294,0.624c0.185,0.445-0.172,0.853-0.622,0.89"/>
			<g>
				<path style="fill:#67723D;" d="M335.312,205.077c-0.169,0.485-0.332,0.972-0.519,1.451c0.28,0.194,0.564,0.382,0.822,0.611
					c0.95,0.843,1.995-0.187,1.034-1.04C336.223,205.721,335.776,205.383,335.312,205.077z"/>
				<path style="fill:#67723D;" d="M349.235,193.472c-2.926-1.367-6.059-2.301-9.259-2.741c-0.713-0.098-1.431-0.157-2.15-0.205
					c-0.031,0.534-0.066,1.067-0.103,1.6c0.447,0.068,0.695,0.185,0.814,0.194c1.198,0.097,2.391,0.264,3.571,0.498
					c2.408,0.479,4.735,1.264,6.959,2.303c0.409,0.191,0.922,0.015,0.982-0.463C350.114,194.135,349.67,193.675,349.235,193.472z"/>
				<path style="fill:#67723D;" d="M368.737,175.755c-3.677,0.689-7.281,2.097-10.771,3.403c-3.349,1.254-6.649,2.637-9.92,4.086
					c0.726-1.552,1.453-3.105,2.178-4.657c0.259-0.553-1.341-1.718-1.464-1.455c-1.076,2.299-2.151,4.599-3.227,6.898
					c-0.048,0.102-0.018,0.227,0.039,0.357c-1.463,0.674-2.941,1.317-4.386,2.028c-1.062,0.523-2.141,1.066-3.226,1.618
					c-0.04,0.759-0.079,1.519-0.122,2.278c1.421-0.74,2.836-1.46,4.222-2.149c5.737-2.852,11.633-5.401,17.64-7.628
					c3.34-1.239,6.784-2.569,10.299-3.228C370.52,177.21,369.322,175.645,368.737,175.755z"/>
			</g>
		</g>
		<g>
			<path style="fill:#AFBD77;" d="M296.748,205.853c5.966,0.547,11.879,5.926,10.573,11.7c5.658-5.379,15.518-5.586,21.45-0.527
				c4.014-5.081,6.814-11.117,8.054-17.473c1.186-6.078,0.974-12.335,1.627-18.492c1.243-11.722,5.697-23.087,12.749-32.532
				c-9.143,6-19.301,10.269-28.778,15.726c-9.477,5.457-18.541,12.424-23.673,22.081c-3.127,5.884-4.464,12.934-3.469,19.455
				C295.768,205.793,296.257,205.808,296.748,205.853z"/>
			<path style="fill:#7C884A;" d="M306.662,210.369c-0.031,0.141-0.054,0.284-0.084,0.425c-0.06,0.267-0.13,0.655-0.204,1.109
				c0.975,1.717,1.398,3.657,0.948,5.651c0.147-0.14,0.309-0.261,0.461-0.394c0.065-1.105,0.175-2.206,0.337-3.304
				c0.002-0.006,0.009-0.009,0.01-0.016c0.23-0.802,0.379-1.617,0.479-2.437c1.831-2.312,4.209-4.28,6.615-5.889
				c3.169-2.119,7.298-4.197,11.226-3.379c1.243,0.259,1.638-1.154,0.38-1.416c-4.399-0.916-8.78,0.855-12.453,3.176
				c-1.647,1.041-3.305,2.256-4.817,3.622c6.96-19.943,11.524-19.44,12.057-19.692c1.088-0.512,2.206-0.96,3.345-1.343
				c2.328-0.782,4.737-1.258,7.182-1.462c0.45-0.037,0.807-0.445,0.622-0.89c-0.202-0.486-0.816-0.664-1.294-0.624
				c-3.218,0.269-6.401,1.016-9.396,2.226c-0.774,0.313-1.534,0.66-2.281,1.033c0.937-1.467,1.88-2.903,2.813-4.298
				c3.559-5.327,7.407-10.47,11.512-15.389c2.282-2.735,4.609-5.602,7.33-7.921c0.403-0.343-1.414-1.105-1.867-0.719
				c-2.847,2.426-5.274,5.44-7.652,8.308c-2.283,2.753-4.457,5.594-6.575,8.478c-0.142-1.708-0.284-3.416-0.426-5.124
				c-0.05-0.609-2.017-0.824-1.993-0.534c0.21,2.53,0.42,5.059,0.63,7.589c0.009,0.112,0.097,0.206,0.212,0.29
				c-0.934,1.313-1.897,2.605-2.797,3.941c-1.988,2.952-4.027,6.074-5.946,9.321c-0.425-4.442-1.204-8.843-2.37-13.156
				c-0.2-0.739-2.216-1.012-2.001-0.219c1.43,5.289,2.308,10.707,2.621,16.177c0.003,0.054,0.036,0.102,0.058,0.151
				c-1.999,3.629-3.779,7.399-5.12,11.261c-1.082-4.723-3.747-9.226-6.975-12.531c-0.557-0.571-2.49-0.39-1.639,0.48
				C303.943,197.309,307.192,204.009,306.662,210.369z"/>
		</g>
	</g>
	<g>
		<g>
			<g>
				<path style="fill:#7C884A;" d="M202.081,189.301c-2.017,0.646-4.022,1.397-5.975,2.254c-0.425,4.331-0.309,8.724-1.142,12.995
					c-0.836,4.283-2.648,8.367-5.238,11.879c-0.011-0.004-0.023-0.006-0.034-0.01c1.729,0.616,3.287,1.658,4.399,3.122
					c2.414-3.422,7.167-4.505,11.174-3.395c0.416-0.756,0.807-1.526,1.147-2.319c1.595-3.718,2.322-7.743,3.588-11.585
					c2.41-7.314,6.82-13.958,12.626-19.018C215.96,185.796,208.885,187.122,202.081,189.301z"/>
			</g>
			<g>
				<path style="fill:#67723D;" d="M213.841,187.949c-2.153,1.157-4.118,2.747-6.032,4.251c-1.837,1.444-3.618,2.958-5.367,4.508
					c0.145-1.11,0.29-2.22,0.434-3.331c0.052-0.396-1.175-0.804-1.199-0.616c-0.214,1.644-0.429,3.289-0.643,4.933
					c-0.01,0.073,0.034,0.145,0.095,0.215c-0.778,0.709-1.571,1.402-2.329,2.131c-1.22,1.172-2.463,2.416-3.698,3.694
					c-0.046,0.272-0.084,0.545-0.137,0.816c-0.111,0.568-0.241,1.132-0.386,1.692c2.401-2.267,3.514-1.95,3.739-2.002
					c0.765-0.177,1.541-0.309,2.322-0.397c1.594-0.179,3.198-0.15,4.788,0.056c0.293,0.038,0.577-0.173,0.52-0.483
					c-0.062-0.338-0.43-0.536-0.741-0.577c-2.092-0.272-4.228-0.233-6.307,0.126c-0.537,0.093-1.07,0.21-1.599,0.345
					c0.801-0.807,1.601-1.595,2.389-2.357c3.007-2.911,6.173-5.665,9.472-8.241c1.835-1.432,3.715-2.942,5.773-4.048
					C215.239,188.502,214.183,187.765,213.841,187.949z"/>
				<path style="fill:#67723D;" d="M199.869,213.193c-2.625-1.166-5.59-0.683-8.214,0.252c-0.336,0.592-0.689,1.174-1.064,1.741
					c0.401-0.187,0.803-0.371,1.206-0.531c2.315-0.916,5.239-1.674,7.634-0.61C200.189,214.382,200.636,213.534,199.869,213.193z"/>
			</g>
		</g>
		<g>
			<g>
				<path style="fill:#7C884A;" d="M165.153,210.406c-1.149-5.078-0.224-10.756,2.255-15.422c0.094-0.178,0.198-0.349,0.296-0.524
					c-4.306-3.687-9.696-6.107-15.142-7.851c-6.804-2.179-13.879-3.504-20.545-6.076c5.805,5.06,10.216,11.704,12.626,19.018
					c0.948,2.878,1.594,5.858,2.529,8.735c0.917-0.232,1.862-0.356,2.812-0.341c4.304,0.067,8.445,2.828,10.115,6.746
					c1.144-1.932,2.969-3.419,5.056-4.285C165.154,210.405,165.153,210.405,165.153,210.406z"/>
			</g>
			<g>
				<path style="fill:#67723D;" d="M156.255,210.036c0.367,0.257,0.722,0.531,1.057,0.828c1.792-0.123,3.678,0.39,5.3,1.013
					c0.378-0.293,0.777-0.56,1.192-0.802c-0.213-0.084-0.427-0.184-0.638-0.262C160.979,210.013,158.542,209.532,156.255,210.036z"
					/>
				<g>
					<path style="fill:#67723D;" d="M164.704,206.947c-0.73-0.962-1.496-1.899-2.29-2.811c0.007-0.035,0.022-0.07,0.016-0.105
						c-0.554-3.536-0.74-7.117-0.556-10.692c0.028-0.536-1.222-0.084-1.248,0.416c-0.15,2.915-0.041,5.832,0.3,8.728
						c-1.673-1.809-3.406-3.522-5.082-5.133c-0.759-0.729-1.552-1.422-2.329-2.131c0.062-0.07,0.105-0.142,0.095-0.215
						c-0.214-1.644-0.429-3.289-0.643-4.933c-0.025-0.188-1.251,0.22-1.199,0.616c0.145,1.11,0.29,2.221,0.434,3.331
						c-1.75-1.549-3.53-3.064-5.367-4.508c-1.914-1.504-3.879-3.094-6.032-4.251c-0.342-0.184-1.398,0.553-1.093,0.716
						c2.058,1.106,3.939,2.616,5.773,4.048c3.299,2.576,6.465,5.33,9.472,8.241c0.788,0.763,1.588,1.55,2.389,2.357
						c-0.529-0.135-1.062-0.252-1.599-0.345c-2.08-0.36-4.215-0.398-6.307-0.126c-0.311,0.04-0.678,0.239-0.741,0.577
						c-0.057,0.31,0.227,0.521,0.52,0.483c1.59-0.206,3.194-0.235,4.788-0.056c0.781,0.087,1.556,0.22,2.322,0.397
						c0.344,0.08,2.771-0.703,8.722,8.256C164.868,208.867,164.751,207.912,164.704,206.947z"/>
				</g>
			</g>
		</g>
		<g>
			<path style="fill:#AFBD77;" d="M170.98,209.695c4.068,0.694,7.539,3.979,8.467,7.944h0.571c2.725-2.017,6.514-2.362,9.708-1.21
				c2.59-3.511,4.402-7.596,5.238-11.879c0.858-4.398,0.705-8.927,1.177-13.383c0.9-8.483,4.123-16.709,9.227-23.545
				c-6.617,4.343-13.969,7.432-20.827,11.382c-6.859,3.95-13.419,8.991-17.133,15.98c-2.48,4.666-3.404,10.343-2.255,15.422
				C166.985,209.644,169.019,209.36,170.98,209.695z"/>
			<path style="fill:#7C884A;" d="M173.124,210.322c0.921,0.382,1.783,0.897,2.565,1.517c1.106-1.127,2.367-2.122,3.641-2.975
				c2.293-1.533,5.282-3.037,8.124-2.446c0.899,0.187,1.185-0.835,0.275-1.025c-3.184-0.663-6.354,0.619-9.013,2.298
				c-1.192,0.753-2.392,1.633-3.486,2.621c5.037-14.433,8.34-14.07,8.726-14.251c0.787-0.37,1.596-0.695,2.421-0.972
				c1.685-0.566,3.428-0.911,5.198-1.058c0.326-0.027,0.584-0.322,0.45-0.644c-0.147-0.352-0.591-0.48-0.937-0.452
				c-2.329,0.195-4.633,0.735-6.801,1.611c-0.56,0.226-1.11,0.478-1.651,0.747c0.678-1.061,1.361-2.101,2.036-3.111
				c2.576-3.855,5.361-7.577,8.331-11.138c1.652-1.98,3.335-4.054,5.305-5.733c0.292-0.249-1.024-0.799-1.352-0.52
				c-2.061,1.756-3.817,3.937-5.538,6.013c-1.652,1.993-3.226,4.049-4.758,6.136c-0.103-1.236-0.205-2.472-0.308-3.708
				c-0.036-0.441-1.46-0.596-1.443-0.387c0.152,1.831,0.304,3.662,0.456,5.493c0.006,0.081,0.07,0.149,0.153,0.21
				c-0.676,0.95-1.373,1.885-2.024,2.852c-1.439,2.136-2.914,4.396-4.303,6.746c-0.308-3.215-0.871-6.4-1.715-9.521
				c-0.145-0.535-1.604-0.733-1.449-0.158c1.035,3.828,1.67,7.749,1.897,11.708c0.002,0.039,0.026,0.073,0.042,0.109
				c-1.447,2.627-2.735,5.355-3.706,8.15c-0.783-3.418-2.712-6.677-5.048-9.069c-0.403-0.413-1.802-0.282-1.186,0.348
				C170.702,202.45,172.797,206.374,173.124,210.322z"/>
		</g>
	</g>
	<g>
		<g>
			<g>
				<path style="fill:#7C884A;" d="M264.116,203.146c4.223-0.412,8.549,0.945,11.88,3.526c1.867-5.027,4.989-9.586,9.032-13.11
					c-4.984,1.923-10.274,2.914-15.361,4.543c-5.087,1.629-10.133,4.021-13.579,8.103c-0.019,0.023-0.036,0.047-0.056,0.07
					C258.393,204.56,261.193,203.431,264.116,203.146z"/>
			</g>
			<g>
				<path style="fill:#67723D;" d="M270.976,203.976c1.298-1.142,2.622-2.255,3.984-3.318c1.372-1.071,2.778-2.2,4.316-3.027
					c0.228-0.122-0.562-0.673-0.818-0.536c-1.61,0.865-3.079,2.054-4.51,3.178c-1.374,1.079-2.705,2.212-4.013,3.371
					c0.108-0.83,0.217-1.66,0.325-2.49c0.039-0.296-0.878-0.601-0.897-0.46c-0.119,0.915-0.239,1.831-0.358,2.746
					C269.672,203.581,270.331,203.757,270.976,203.976z"/>
			</g>
		</g>
		<g>
			<g>
				<path style="fill:#7C884A;" d="M237.721,198.047c-1.647-0.763-3.36-1.402-5.079-1.952c-5.087-1.629-10.378-2.62-15.361-4.543
					c4.341,3.783,7.638,8.751,9.44,14.219c0.477,1.446,0.851,2.927,1.258,4.396c2.176,0.859,4.123,2.278,5.499,4.154
					c0.382-2.138,1.218-4.288,2.427-6.139C235.753,204.759,236.41,201.246,237.721,198.047z"/>
			</g>
			<g>
				<g>
					<path style="fill:#67723D;" d="M235.911,206.268c0.017-0.421,0.037-0.842,0.077-1.262c-0.297-0.292-0.597-0.599-0.891-0.882
						c-0.567-0.545-1.16-1.063-1.742-1.593c0.046-0.052,0.079-0.106,0.071-0.161l-0.481-3.689c-0.018-0.141-0.935,0.164-0.897,0.461
						c0.108,0.83,0.216,1.66,0.325,2.49c-1.308-1.159-2.639-2.291-4.013-3.371c-1.431-1.124-2.9-2.313-4.51-3.178
						c-0.256-0.138-1.045,0.413-0.818,0.536c1.539,0.827,2.945,1.956,4.316,3.027c2.467,1.926,4.834,3.985,7.083,6.161
						C234.919,205.28,235.415,205.772,235.911,206.268z"/>
					<path style="fill:#67723D;" d="M235.896,206.501c-0.291-0.068-0.581-0.138-0.875-0.189c-1.555-0.269-3.152-0.298-4.716-0.094
						c-0.232,0.03-0.507,0.179-0.554,0.431c-0.042,0.231,0.17,0.389,0.389,0.361c1.189-0.154,2.388-0.176,3.58-0.042
						c0.584,0.066,1.164,0.165,1.736,0.297c0.058,0.014,0.209,0.003,0.44,0.044C235.895,207.039,235.888,206.771,235.896,206.501z"
						/>
				</g>
			</g>
		</g>
		<g>
			<path style="fill:#AFBD77;" d="M243.662,202.993c4.389-0.42,8.479,4.199,7.941,8.041c2.661-4.319,7.402-7.389,12.514-7.888
				c1.154-0.112,2.315-0.092,3.462,0.048c0.449-3.725,0.428-7.51,0.824-11.249c0.929-8.764,4.26-17.262,9.532-24.324
				c-6.836,4.487-14.431,7.678-21.517,11.758c-7.086,4.08-13.863,9.289-17.7,16.509c-1.981,3.728-2.999,8.083-2.813,12.293
				C237.718,205.405,240.378,203.308,243.662,202.993z"/>
			<g>
				<path style="fill:#7C884A;" d="M251.617,209.856c0.472-0.298,0.963-0.587,1.476-0.856c0.68-0.797,1.433-1.535,2.251-2.195
					c-1.402,0.351-2.756,0.943-4.018,1.661C251.477,208.926,251.576,209.391,251.617,209.856z"/>
				<path style="fill:#7C884A;" d="M241.548,203.468c0.404-0.143,0.82-0.257,1.247-0.342c-0.676-0.981-1.417-1.898-2.211-2.71
					c-0.417-0.427-1.861-0.292-1.226,0.359C240.147,201.582,240.885,202.49,241.548,203.468z"/>
				<path style="fill:#7C884A;" d="M249.628,201.365c-0.525,0.953-1.02,1.924-1.497,2.901c0.432,0.298,0.834,0.638,1.204,1.01
					c3.758-8.34,6.149-8.119,6.479-8.274c0.813-0.383,1.649-0.718,2.502-1.004c1.74-0.585,3.541-0.941,5.37-1.093
					c0.337-0.028,0.603-0.333,0.465-0.666c-0.151-0.363-0.61-0.496-0.968-0.467c-2.406,0.201-4.786,0.76-7.026,1.665
					c-0.578,0.234-1.147,0.493-1.705,0.772c0.701-1.097,1.406-2.17,2.103-3.214c2.661-3.983,5.538-7.828,8.607-11.506
					c1.706-2.045,3.446-4.188,5.481-5.923c0.301-0.257-1.058-0.826-1.396-0.537c-2.129,1.814-3.944,4.068-5.722,6.212
					c-1.707,2.059-3.333,4.183-4.916,6.339c-0.106-1.277-0.212-2.554-0.318-3.831c-0.038-0.455-1.508-0.616-1.49-0.399
					c0.157,1.891,0.314,3.783,0.471,5.674c0.007,0.084,0.073,0.154,0.158,0.217c-0.698,0.981-1.419,1.948-2.091,2.946
					c-1.487,2.207-3.011,4.542-4.446,6.969c-0.318-3.322-0.9-6.612-1.772-9.837c-0.149-0.552-1.657-0.757-1.496-0.164
					c1.069,3.955,1.726,8.005,1.96,12.095C249.587,201.293,249.611,201.328,249.628,201.365z"/>
			</g>
		</g>
	</g>
	<path style="fill:#8C6A5D;" d="M372.594,221.58c-4.683-5.768-13.737-7.751-20.366-4.202c-6.882-4.308-16.258-4.364-23.192-0.138
		c-5.9-5.289-15.974-5.144-21.715,0.313c1.306-5.774-4.607-11.153-10.573-11.7c-5.967-0.547-11.673,2.227-17.006,4.925
		c-3.22-5.143-9.532-8.226-15.626-7.631c-5.112,0.498-9.853,3.569-12.514,7.888c0.539-3.842-3.552-8.461-7.941-8.041
		c-5.471,0.524-9.231,5.983-10.185,11.328c-2.948-4.02-8.503-5.976-13.361-4.706c-4.859,1.271-8.705,5.685-9.251,10.618
		c-3.337-5.691-12.966-6.089-16.773-0.693c-3.286-4.323-10.421-5.075-14.558-1.534c-0.792-4.129-4.359-7.596-8.553-8.311
		c-4.194-0.716-8.733,1.368-10.882,4.996c-1.67-3.917-5.811-6.679-10.115-6.746c-4.304-0.067-8.531,2.564-10.325,6.427
		c-4.219-2.962-9.08-5.464-14.256-5.394c-5.176,0.07-10.584,3.438-11.435,8.48c-3.185-2.542-6.512-5.156-10.493-6.111
		c-3.98-0.955-8.811,0.26-10.721,3.838c-2.159-3.841-6.611-6.307-11.056-6.123c-4.445,0.183-8.674,3.006-10.501,7.011
		c-1.77-5.058-8.178-7.968-13.219-6.004c-5.018,1.955-7.682,8.349-5.532,13.23L372.594,221.58z"/>
	<g>
		<polygon style="fill:#F3A13F;" points="347.467,323.506 77.732,323.506 51.433,233.145 373.766,233.145 		"/>
		<g>
			<path style="fill:#F08A3D;" d="M141.144,248.995c12.777-0.203,25.405-1.78,37.956-3.041c12.909-1.297,25.819-2.594,38.728-3.891
				c12.836-1.289,25.69-2.619,38.691-3.226c22.366-1.044,46.106,0.299,65.298,7.511c4.466,1.678,8.631,3.67,12.171,5.966
				c3.758,2.437,6.828,5.545,4.876,8.856c-3.887,6.594-17.784,7.66-28.165,7.818c-23.435,0.357-47.4-0.302-69.967-4.214
				c-5.738-0.995-11.359-2.207-16.79-3.662c-4.952-1.327-10.358-2.922-13.28-5.692c-2.986-2.831-2.17-6.167,2.546-8.154
				c3.879-1.635,8.977-2.261,13.607-2.799c21.254-2.468,44.072-0.158,62.599,6.284c2.196,0.764,4.343,1.581,6.399,2.463
				c2.208,0.948,5.083,2.242,4.926,3.997c-0.227,2.543-5.544,4.091-9.188,4.782c-5.136,0.973-10.957,1.051-16.313,0.952
				c-5.799-0.106-11.576-0.615-17.164-1.509c-5.444-0.871-11.174-2.059-15.915-3.858c-1.958-0.744-4.501-1.919-3.99-3.44
				c0.378-1.124,2.157-1.843,3.909-2.231c3.979-0.88,8.575-0.695,12.686-0.255c2.335,0.25,5.316,0.715,6.472,2.04
				c1.151,1.319-0.242,2.71-2.794,2.832c-3.95,0.188-7.425-1.691-11.443-0.852c-1.234,0.257-0.363,2.002,0.821,1.755
				c4.397-0.918,8.858,1.819,13.154,0.565c3.894-1.137,3.05-4.378,0.722-6.016c-3.081-2.168-9.279-2.474-13.82-2.44
				c-3.752,0.028-8.602,0.422-10.768,2.426c-2.486,2.301-0.116,5.043,3.175,6.577c4.511,2.102,10.601,3.349,16.095,4.327
				c6.205,1.105,12.672,1.729,19.167,1.848c5.604,0.103,11.73,0.038,17.082-1.014c4.013-0.789,8.482-2.272,9.764-4.754
				c1.495-2.893-1.832-5.39-5.621-7.064c-9.284-4.102-20.29-6.984-31.644-8.609c-11.408-1.633-23.389-1.986-35.021-0.976
				c-9.295,0.807-23.637,2.423-23.268,9.35c0.388,7.278,13.902,10.601,24.004,12.871c11.989,2.693,24.614,4.331,37.374,5.25
				c13.018,0.937,26.165,1.149,39.273,1.029c11.278-0.103,24.874-0.374,31.541-6.509c6.625-6.096-1.523-12.331-9.514-16.34
				c-8.638-4.333-19.157-7.26-30.171-9.025c-26.501-4.245-54.27-1.432-80.79,1.232c-14.459,1.452-28.917,2.905-43.376,4.357
				c-14.364,1.443-28.611,3.053-43.27,2.659c-14.238-0.383-28.479-1.731-42.498-3.15c-12.113-1.225-24.147-2.698-36.09-4.382
				l0.517,1.777c16.105,2.269,32.373,4.155,48.772,5.587C115.33,248.112,128.244,249.201,141.144,248.995z"/>
			<path style="fill:#F08A3D;" d="M366.481,251.822c-4.586-2.273-8.325-5.031-12.646-7.458c-4.184-2.351-9.003-4.324-14.252-5.821
				c-5.936-1.693-12.333-2.738-18.918-3.158c-0.705-0.045,0.197,1.527,0.502,1.675c10.168,4.926,23.297,8.235,31.385,14.463
				c3.79,2.918,6.594,6.515,6.12,10.22c-0.092,0.714-0.336,1.405-0.668,2.077l1.946-0.767c0.434-2.862-0.722-5.768-2.703-8.39
				c-5.371-7.108-16.812-11.166-27.495-15.408c-1.457-0.578-2.898-1.169-4.317-1.776c10.619,1.13,20.574,4.029,28.348,8.347
				c4.268,2.371,7.941,5.075,12.389,7.343c0.505,0.257,1.031,0.491,1.555,0.729l0.394-1.353
				C367.57,252.308,367.01,252.083,366.481,251.822z"/>
			<g>
				<path style="fill:#F08A3D;" d="M183.706,290c10.469,0.884,20.959,1.926,31.588,2.369c10.397,0.433,20.401,0.008,30.343-1.401
					c5.077-0.72,10.05-1.556,15.063-2.338h96.917l1.871-6.427H65.711l-0.472-1.622l2.342,8.049H98.6
					c13.235,0.673,26.26,1.973,39.146,3.425c26.358,2.969,52.654,6.527,80.099,6.763c28.125,0.242,55.896-2.335,83.998-2.336
					c13.886-0.001,27.835,0.685,41.008,2.675c3.795,0.574,7.486,1.25,11.127,1.975l0.371-1.274
					c-0.946-0.191-1.878-0.395-2.832-0.578c-12.419-2.394-25.506-3.718-39.038-4.126c-28.031-0.846-55.841,1.679-83.786,2.12
					c-14.184,0.224-28.208-0.25-42.156-1.393c-13.645-1.118-27.043-2.723-40.449-4.28c-9.218-1.071-18.469-2.113-27.805-2.972
					h49.191L183.706,290z M250.245,288.629c-8.803,1.374-17.632,2.432-27.113,2.436c-12.295,0.004-24.453-1.248-36.46-2.262
					l-2.062-0.174H250.245z"/>
				<path style="fill:#F08A3D;" d="M165.344,268.259c-7.389-0.844-14.71,0.724-21.55,2.153c-0.83,0.173-1.66,0.347-2.49,0.521
					H62.431l1.219,4.189h297.898l-0.301,1.032l1.52-5.221H241.099c-3.589-0.769-7.114-1.635-10.524-2.643
					c-6.122-1.811-11.705-4.052-16.979-6.582c-4.886-2.344-9.618-4.819-14.964-6.824c-5.634-2.114-11.837-3.443-18.535-3.904
					c-6.938-0.477-13.956-0.123-20.837,0.472c-13.659,1.181-27.121,2.852-40.88,3.682c-20.224,1.22-41.182,1.228-61.001-1.553
					l0.485,1.667c17.149,2.414,35.197,2.815,52.837,2.077c14.127-0.591,28.045-1.941,41.963-3.398
					c14.379-1.505,29.795-2.679,43.169,1.545c6.042,1.908,11.21,4.562,16.44,7.105c5.158,2.508,10.5,4.83,16.429,6.716
					c1.859,0.591,3.763,1.128,5.687,1.641h-23.281c-4.009-1.245-7.873-2.636-11.665-4.137c-6.058-2.398-12.284-4.857-19.516-5.92
					c-7.856-1.155-16.197-0.66-24.16-0.204c-9.958,0.57-19.856,1.445-29.659,2.597c-1.065,0.125-0.304,1.887,0.822,1.755
					c8.53-1.003,17.13-1.797,25.783-2.36c8.346-0.543,17.121-1.211,25.456-0.304c7.623,0.83,14.094,3.262,20.372,5.744
					c2.478,0.98,4.968,1.93,7.506,2.828h-30.33C172.504,269.736,169.143,268.693,165.344,268.259z M150.801,270.933
					c5.295-0.966,10.808-1.6,16.26-0.777c1.286,0.194,2.505,0.47,3.7,0.777H150.801z"/>
			</g>
			<path style="fill:#F08A3D;" d="M93.171,264.604c7.241-0.365,14.454-0.89,21.657-1.444c1.149-0.089,0.432-1.851-0.822-1.755
				c-17.694,1.362-36.032,2.65-53.901,1.538l0.511,1.757C71.422,265.353,82.364,265.148,93.171,264.604z"/>
			<path style="fill:#F08A3D;" d="M118.187,239.856c8.161,0.507,16.398,0.495,24.559,0.002c1.146-0.069,0.449-1.832-0.822-1.755
				c-14.665,0.886-29.567,0.124-43.724-2.245c-4.423-0.74-8.679-1.684-12.879-2.714h-6.61c6.022,1.607,12.074,3.124,18.45,4.241
				C104.012,238.587,111.063,239.414,118.187,239.856z"/>
			<path style="fill:#F08A3D;" d="M165.057,241.292c21.477-3.337,43.244-6.044,65.188-8.148h-17.945
				c-5.365,0.596-10.72,1.22-16.059,1.891c-10.732,1.35-21.402,2.854-32.006,4.501C163.613,239.634,164.428,241.39,165.057,241.292z
				"/>
			<path style="fill:#F08A3D;" d="M298.849,305.241c-11.582,0.096-23.071,0.825-34.482,1.645
				c-11.339,0.815-22.654,1.729-34.095,2.233c-11.348,0.5-22.773,0.567-34.164,0.365c-22.795-0.405-45.395-1.847-68.039-2.971
				c-18.471-0.917-37.099-1.61-55.681-1.367l0.438,1.506c38.577-0.534,76.958,3.054,115.412,4.135
				c10.978,0.308,22,0.412,32.99,0.159c11.416-0.263,22.705-1.005,33.968-1.828c22.513-1.645,45.218-3.405,67.975-1.547
				c9.595,0.783,18.853,2.057,27.881,3.612l0.389-1.335c-6.598-1.15-13.309-2.17-20.212-2.946
				C320.63,305.711,309.795,305.151,298.849,305.241z"/>
			<path style="fill:#F08A3D;" d="M297.085,316.421c-11.564,0.718-22.338,2.748-33.214,4.501
				c-6.882,1.109-13.841,1.987-20.946,2.585h14.671c10.474-1.486,20.525-3.514,31.182-4.758c11.31-1.32,22.923-1.41,34.469-0.678
				c6.722,0.426,13.327,1.08,19.885,1.828l2.84-1.12c-5.168-0.613-10.36-1.183-15.608-1.643
				C319.431,316.178,308.175,315.732,297.085,316.421z"/>
			<path style="fill:#F08A3D;" d="M117.802,315.249c-14.132-1.425-28.708-2.498-43.246-2.656l0.424,1.458
				c34.726,0.333,69.402,6.169,103.137,9.454h17.915c-1.901-0.125-3.799-0.257-5.69-0.401
				C165.758,321.222,142.083,317.698,117.802,315.249z"/>
			<path style="fill:#F08A3D;" d="M93.922,292.617c7.426,0.372,14.634,1.166,21.64,2.294c3.65,0.588,7.235,1.248,10.808,1.919
				c1.409,0.265,3.373,0.47,4.539,0.918c1.699,0.652-0.085,1.596-1.376,2.084c-5.779,2.183-15.354,1.024-21.956,0.403l-26.838-2.523
				c-1.461-0.137-0.964,1.377,0.356,1.502c9.235,0.868,18.469,1.738,27.704,2.605c6.718,0.631,15.617,1.545,21.672-0.44
				c2.243-0.735,3.8-1.954,3.352-3.198c-0.577-1.603-3.826-2.113-6.863-2.684c-7.926-1.491-15.955-2.927-24.415-3.734
				c-11.264-1.074-22.797-1.116-34.256-0.699l0.44,1.513C77.118,292.264,85.539,292.197,93.922,292.617z"/>
			<path style="fill:#F08A3D;" d="M208.425,305.462c1.442-0.175,0.526-1.668-0.917-1.493c-19.846,2.402-39.549-1.183-57.53-4.584
				c-1.706-0.323-1.545,1.176-0.28,1.415C168.052,304.27,188.172,307.914,208.425,305.462z"/>
			<path style="fill:#F08A3D;" d="M332.304,293.423c7.392,1.483,15.047,2.688,22.862,3.626l0.424-1.457
				c-7.833-0.928-15.516-2.107-22.925-3.593C330.919,291.648,330.957,293.153,332.304,293.423z"/>
			<path style="fill:#F08A3D;" d="M271.561,301.896c16.48-0.77,33.458-0.998,49.286,1.481c1.308,0.205,0.903-1.303-0.361-1.501
				c-15.733-2.463-32.646-2.258-49.036-1.51c-17.747,0.81-35.442,1.915-53.144,2.893c-1.318,0.073-0.517,1.573,0.918,1.493
				C236.659,303.788,254.085,302.712,271.561,301.896z"/>
			<path style="fill:#F08A3D;" d="M313.786,311.219c9.121-0.132,18.249-0.027,27.363,0.155c1.426,0.029,0.753-1.471-0.418-1.494
				c-15.618-0.313-31.341-0.392-46.873,0.506c-15.346,0.887-29.918,3.08-44.858,4.742c-8.41,0.936-16.95,1.647-25.642,1.777
				c-1.114,0.017-0.429,1.513,0.917,1.493c15.178-0.227,29.682-2.253,44.188-4.026C283.363,312.551,298.303,311.443,313.786,311.219
				z"/>
		</g>
	</g>
	<polygon style="fill:#F7BF41;" points="385.567,221.51 39.632,223.367 39.632,233.145 385.567,233.145 	"/>
	<g>
		<g>
			<path style="fill:#EEAFA5;" d="M133.176,62.604c-3.215-0.925-6.632,0.384-9.579,1.965c-4.608,2.472-8.809,5.687-12.427,9.462
				c0.099-1.645,0.064-3.3-0.078-4.91c-0.474-5.361-1.894-10.637-4.175-15.512c-0.626-1.337-1.399-2.729-2.723-3.381
				c-0.911-0.449-1.966-0.484-2.982-0.464c-7.461,0.143-14.85,2.828-20.662,7.509c-2.949,2.376-5.66,5.666-5.527,9.45
				c0.118,3.343,2.421,6.186,4.838,8.498c1.461,1.397,3.012,2.697,4.632,3.904c-3.674-0.434-7.399-0.439-11.071,0.013
				c-1.465,0.18-3.028,0.484-4.059,1.541c-0.709,0.727-1.07,1.719-1.366,2.691c-2.178,7.137-1.916,14.995,0.733,21.972
				c1.344,3.541,3.632,7.137,7.271,8.184c3.215,0.925,6.632-0.383,9.579-1.965c4.608-2.472,8.809-5.687,12.427-9.462
				c-0.099,1.645-0.064,3.3,0.078,4.91c0.474,5.361,1.894,10.637,4.175,15.512c0.626,1.337,1.399,2.729,2.723,3.381
				c0.911,0.449,1.966,0.484,2.982,0.464c7.461-0.143,14.85-2.828,20.662-7.509c2.949-2.376,5.66-5.666,5.527-9.45
				c-0.118-3.343-2.421-6.186-4.838-8.498c-1.461-1.397-3.012-2.697-4.632-3.904c3.674,0.434,7.399,0.439,11.071-0.013
				c1.465-0.18,3.028-0.484,4.059-1.541c0.709-0.727,1.07-1.719,1.366-2.691c2.178-7.138,1.916-14.995-0.733-21.972
				C139.103,67.247,136.816,63.651,133.176,62.604z"/>
		</g>
		<g>
			<path style="fill:#EB9598;" d="M116.193,94.695c-2.884,6.741-10.687,9.868-17.428,6.983c-6.741-2.884-9.868-10.687-6.984-17.428
				c2.884-6.741,10.687-9.868,17.428-6.984C115.95,80.151,119.077,87.954,116.193,94.695z"/>
			<g>
				<path style="fill:#EB9598;" d="M115.952,78.174c2.187-1.244,4.375-2.489,6.562-3.733c0.529-0.301,0.049-0.784-0.398-0.53
					c-2.187,1.244-4.375,2.489-6.562,3.733C115.026,77.945,115.506,78.428,115.952,78.174L115.952,78.174z"/>
			</g>
			<g>
				<path style="fill:#EB9598;" d="M117.993,81.054c2.642-1.702,5.538-2.957,8.587-3.721c0.546-0.137,0.412-0.638-0.134-0.501
					c-3.2,0.802-6.248,2.124-9.021,3.911c-0.148,0.096-0.237,0.267-0.069,0.386C117.524,81.249,117.84,81.152,117.993,81.054
					L117.993,81.054z"/>
			</g>
			<g>
				<path style="fill:#EB9598;" d="M120.802,84.273c1.624-0.13,3.249-0.26,4.873-0.39c0.181-0.015,0.478-0.065,0.6-0.216
					c0.12-0.151-0.107-0.164-0.214-0.156c-1.624,0.13-3.249,0.26-4.873,0.39c-0.181,0.015-0.479,0.065-0.6,0.217
					C120.467,84.268,120.695,84.282,120.802,84.273L120.802,84.273z"/>
			</g>
			<g>
				<path style="fill:#EB9598;" d="M121.071,89.096c2.216-0.147,4.432-0.294,6.649-0.442c0.16-0.011,0.484-0.121,0.507-0.314
					c0.025-0.209-0.253-0.218-0.392-0.209c-2.216,0.147-4.432,0.294-6.649,0.441c-0.16,0.011-0.484,0.121-0.507,0.314
					C120.653,89.096,120.932,89.105,121.071,89.096L121.071,89.096z"/>
			</g>
			<g>
				<path style="fill:#EB9598;" d="M119.365,94.051c4.329,0.039,8.634-0.444,12.848-1.435c0.528-0.124,0.45-0.431-0.082-0.306
					c-3.993,0.939-8.087,1.392-12.189,1.355c-0.176-0.002-0.512,0.022-0.634,0.17C119.223,93.937,119.14,94.049,119.365,94.051
					L119.365,94.051z"/>
			</g>
			<g>
				<path style="fill:#EB9598;" d="M118.285,100.541c1.279,1.5,2.795,2.782,4.487,3.794c0.164,0.098,0.417,0.029,0.582-0.034
					c0.05-0.019,0.41-0.194,0.26-0.285c-1.692-1.012-3.208-2.294-4.487-3.794C118.97,100.038,118.12,100.347,118.285,100.541
					L118.285,100.541z"/>
			</g>
			<g>
				<path style="fill:#EB9598;" d="M114.967,102.33c0.92,2.981,2.451,5.749,4.487,8.113c0.208,0.242,1.068-0.082,0.832-0.356
					c-2.01-2.334-3.513-5.054-4.421-7.997C115.764,101.766,114.869,102.013,114.967,102.33L114.967,102.33z"/>
			</g>
			<g>
				<path style="fill:#EB9598;" d="M111.278,105.068c0.859,2.263,1.717,4.526,2.576,6.789c0.086,0.226,0.97-0.049,0.897-0.24
					c-0.859-2.263-1.717-4.526-2.576-6.789C112.09,104.601,111.206,104.877,111.278,105.068L111.278,105.068z"/>
			</g>
			<g>
				<path style="fill:#EB9598;" d="M106.996,105.775c0.396,2.449,0.791,4.897,1.187,7.345c0.048,0.296,0.95,0.086,0.897-0.24
					c-0.396-2.449-0.792-4.897-1.187-7.345C107.845,105.238,106.943,105.448,106.996,105.775L106.996,105.775z"/>
			</g>
			<g>
				<path style="fill:#EB9598;" d="M101.921,105.04c-0.145,3.312-0.017,6.627,0.383,9.917c0.029,0.236,0.932,0.047,0.897-0.24
					c-0.4-3.29-0.528-6.606-0.383-9.917C102.827,104.599,101.934,104.732,101.921,105.04L101.921,105.04z"/>
			</g>
			<g>
				<path style="fill:#EB9598;" d="M83.468,105.716c3.29-0.742,6.386-2.219,9.033-4.308c0.155-0.122,0.087-0.237-0.076-0.283
					c-0.194-0.054-0.482,0.05-0.634,0.17c-2.477,1.955-5.352,3.327-8.43,4.021c-0.118,0.027-0.441,0.149-0.395,0.32
					C83.013,105.812,83.36,105.74,83.468,105.716L83.468,105.716z"/>
			</g>
			<g>
				<path style="fill:#EB9598;" d="M82.003,100.841c2.706-0.526,5.307-1.472,7.732-2.78c0.152-0.082,0.235-0.255,0.074-0.366
					c-0.174-0.12-0.478-0.006-0.637,0.08c-2.285,1.233-4.748,2.098-7.296,2.594c-0.139,0.027-0.435,0.172-0.385,0.356
					C81.544,100.922,81.871,100.867,82.003,100.841L82.003,100.841z"/>
			</g>
			<g>
				<path style="fill:#EB9598;" d="M80.819,95.625c2.267-0.289,4.47-0.979,6.486-2.057c0.146-0.078,0.352-0.243,0.222-0.424
					c-0.119-0.166-0.452-0.126-0.604-0.045c-1.872,1.001-3.903,1.661-6.009,1.93c-0.182,0.023-0.472,0.124-0.5,0.341
					C80.388,95.581,80.661,95.645,80.819,95.625L80.819,95.625z"/>
			</g>
			<g>
				<path style="fill:#EB9598;" d="M80.171,89.592c1.624-0.131,3.248-0.263,4.873-0.394c0.195-0.016,0.471-0.139,0.494-0.362
					c0.023-0.224-0.237-0.308-0.415-0.294c-1.624,0.131-3.248,0.263-4.873,0.394c-0.195,0.016-0.471,0.139-0.494,0.362
					C79.734,89.522,79.994,89.606,80.171,89.592L80.171,89.592z"/>
			</g>
			<g>
				<path style="fill:#EB9598;" d="M78.438,85.918c2.752-1.141,5.785-1.439,8.711-0.901c0.461,0.085,0.9-0.572,0.303-0.682
					c-3.172-0.583-6.444-0.213-9.42,1.021c-0.179,0.074-0.328,0.302-0.206,0.483C77.958,86.036,78.256,85.993,78.438,85.918
					L78.438,85.918z"/>
			</g>
			<g>
				<path style="fill:#EB9598;" d="M85.611,71.234c1.02,3.213,3.105,5.998,5.878,7.908c0.239,0.165,1.069-0.189,0.714-0.434
					c-2.691-1.854-4.707-4.604-5.695-7.715C86.409,70.682,85.515,70.932,85.611,71.234L85.611,71.234z"/>
			</g>
			<g>
				<path style="fill:#EB9598;" d="M92.842,70.846c0.603,1.952,1.451,3.819,2.525,5.557c0.153,0.248,0.996-0.08,0.897-0.24
					c-1.074-1.739-1.922-3.605-2.525-5.557C93.664,70.361,92.769,70.612,92.842,70.846L92.842,70.846z"/>
			</g>
			<g>
				<path style="fill:#EB9598;" d="M97.508,67.929c0.317,2.114,0.904,4.177,1.748,6.141c0.125,0.291,1.007,0.014,0.897-0.241
					c-0.844-1.964-1.431-4.027-1.748-6.141C98.364,67.413,97.462,67.617,97.508,67.929L97.508,67.929z"/>
			</g>
			<g>
				<path style="fill:#EB9598;" d="M102.685,64.681c1.679,2.489,2.498,5.511,2.306,8.507c-0.023,0.356,0.878,0.179,0.896-0.115
					c0.198-3.098-0.633-6.166-2.369-8.74C103.355,64.09,102.484,64.383,102.685,64.681L102.685,64.681z"/>
			</g>
		</g>
		<path style="fill:#F3C6BC;" d="M108.483,61.455c-0.851-3.734-1.845-8.599-5.505-10.17c-2.116-0.909-4.591-0.433-6.844,0.247
			c-7.49,2.262-14.404,6.693-19.7,12.625l4.256,1.88c2.081,1.261,4.856,0.364,6.978-0.984c2.122-1.348,4.052-3.15,6.443-3.836
			c3.161-0.906,6.489,0.349,9.124,2.195c1.331,0.932,3.043,2.063,4.444,0.784C108.434,63.509,108.706,62.433,108.483,61.455z"/>
		<path style="fill:#F3C6BC;" d="M122.911,66.436c3.313-1.477,7.565-3.487,10.835-1.606c1.891,1.088,2.937,3.233,3.701,5.327
			c2.541,6.961,3.112,14.718,1.625,22.102l-3.843-2.157c-2.138-0.861-3.035-3.473-3.219-5.847c-0.184-2.374,0.085-4.86-0.754-7.062
			c-1.109-2.911-3.952-4.719-6.848-5.667c-1.463-0.479-3.292-1.134-3.119-2.922C121.382,67.64,122.043,66.823,122.911,66.436z"/>
		<g>
			<path style="fill:#BA767B;" d="M107.08,79.472c-3.93,0.232-7.73,2.131-10.489,4.911c-2.461,2.479-4.145,6.108-2.745,9.557
				c1.329,3.274,4.619,5.298,8.1,5.379c3.752,0.087,7.359-1.73,9.715-4.615c1.138-1.394,2.004-2.974,2.612-4.665
				c0.603-1.675,1.208-3.713-0.031-5.253c-1.144-1.423-3.063-1.778-4.789-1.723c-2.064,0.066-4.276,0.463-6.18,1.278
				c-3.097,1.325-5.74,4.671-3.963,8.063c1.569,2.995,5.441,3.48,8.094,1.622c1.504-1.054,2.552-2.975,2.057-4.836
				c-0.488-1.833-2.475-2.833-4.259-2.276c-1.452,0.453-2.891,2.316-1.78,3.775c0.98,1.286,2.994,1.11,4.068,0.085
				c0.307-0.293,0.139-0.643-0.208-0.777c-0.413-0.159-0.968,0.052-1.269,0.34c-0.605,0.577-1.831-1.616-0.54-2.285
				c0.624-0.324,1.387,0.244,1.756,0.715c0.498,0.636,0.616,1.481,0.477,2.26c-0.477,2.664-3.665,3.808-5.692,2.011
				c-1.911-1.694-1.872-4.463-0.173-6.277c0.967-1.033,2.269-1.608,3.619-1.957c1.5-0.388,3.284-0.731,4.831-0.494
				c1.296,0.198,2.577,1.016,2.83,2.384c0.26,1.405-0.44,3.083-0.996,4.345c-1.013,2.298-2.584,4.401-4.746,5.729
				c-2.333,1.432-5.378,1.855-7.905,0.672c-2.072-0.97-3.719-2.904-4.196-5.157c-1.319-6.228,6.22-11.302,11.611-11.62
				C107.853,80.603,108.312,79.4,107.08,79.472L107.08,79.472z"/>
		</g>
		<g>
			<path style="fill:#EC9A9B;" d="M118.698,120.169c-4.051,2.868-9.543,4.49-13.985,2.277c-3.111-1.55-2.295-4.727-3.117-8.104
				c-0.732-3.008-3.45-7.645-3.634-11.046c-0.027,1.248,0.018,2.495,0.126,3.715c0.474,5.361,1.894,10.637,4.175,15.512
				c0.626,1.337,1.399,2.729,2.723,3.381c0.911,0.449,1.966,0.484,2.982,0.464c7.461-0.143,14.85-2.828,20.662-7.509
				c2.522-2.031,4.862-4.732,5.407-7.838c-0.496,0.02-0.991,0.061-1.483,0.145C127.058,112.096,123.246,116.948,118.698,120.169z"/>
			<path style="fill:#EC9A9B;" d="M82.051,108.834c-2.192,0.6-4.662,0.889-6.633-0.242c-2.196-1.259-3.15-3.907-3.661-6.386
				c-0.64-3.105-0.854-6.297-0.633-9.46c0.207-2.969,0.791-5.994,0.082-8.884c-0.292-1.192-0.9-2.356-1.716-3.294
				c-0.041,0.038-0.086,0.071-0.126,0.111c-0.709,0.727-1.07,1.719-1.366,2.691c-2.178,7.137-1.916,14.995,0.733,21.972
				c1.344,3.541,3.632,7.137,7.271,8.184c3.215,0.925,6.632-0.384,9.579-1.965c4.608-2.472,8.809-5.687,12.427-9.462
				C92.179,102.079,87.674,107.296,82.051,108.834z"/>
		</g>
	</g>
	<g>
		<g>
			<path style="fill:#EEAFA5;" d="M349.736,71.771c-2.059-0.592-4.247,0.246-6.135,1.258c-2.951,1.583-5.642,3.642-7.959,6.059
				c0.064-1.053,0.041-2.113-0.05-3.144c-0.303-3.433-1.213-6.812-2.674-9.934c-0.401-0.856-0.896-1.747-1.744-2.165
				c-0.584-0.287-1.259-0.31-1.91-0.297c-4.778,0.091-9.51,1.811-13.232,4.809c-1.889,1.521-3.624,3.628-3.539,6.052
				c0.075,2.141,1.55,3.961,3.098,5.442c0.935,0.895,1.929,1.727,2.967,2.5c-2.353-0.278-4.738-0.281-7.09,0.009
				c-0.938,0.116-1.939,0.31-2.599,0.987c-0.454,0.466-0.685,1.101-0.875,1.723c-1.395,4.571-1.227,9.603,0.469,14.071
				c0.861,2.267,2.326,4.571,4.656,5.241c2.059,0.592,4.247-0.246,6.135-1.258c2.951-1.583,5.642-3.642,7.959-6.059
				c-0.064,1.053-0.041,2.113,0.05,3.144c0.303,3.433,1.213,6.812,2.674,9.934c0.401,0.856,0.896,1.747,1.744,2.165
				c0.584,0.287,1.259,0.31,1.91,0.297c4.778-0.091,9.51-1.811,13.232-4.809c1.889-1.521,3.625-3.628,3.539-6.052
				c-0.075-2.141-1.55-3.961-3.098-5.442c-0.935-0.895-1.929-1.727-2.967-2.5c2.353,0.278,4.738,0.281,7.09-0.009
				c0.938-0.115,1.939-0.31,2.599-0.987c0.454-0.466,0.685-1.101,0.875-1.723c1.395-4.571,1.227-9.603-0.469-14.071
				C353.532,74.745,352.067,72.441,349.736,71.771z"/>
		</g>
		<g>
			<path style="fill:#EB9598;" d="M338.859,92.322c-1.847,4.317-6.844,6.319-11.161,4.472c-4.317-1.847-6.319-6.844-4.472-11.161
				c1.847-4.317,6.844-6.319,11.161-4.472C338.704,83.008,340.706,88.005,338.859,92.322z"/>
			<g>
				<path style="fill:#EB9598;" d="M338.705,81.742c1.401-0.797,2.802-1.594,4.203-2.391c0.339-0.193,0.031-0.502-0.255-0.339
					c-1.401,0.797-2.802,1.594-4.202,2.391C338.112,81.596,338.419,81.905,338.705,81.742L338.705,81.742z"/>
			</g>
			<g>
				<path style="fill:#EB9598;" d="M340.012,83.587c1.692-1.09,3.547-1.894,5.499-2.383c0.35-0.088,0.264-0.409-0.086-0.321
					c-2.049,0.514-4.001,1.36-5.777,2.505c-0.095,0.061-0.151,0.171-0.044,0.247C339.712,83.711,339.914,83.65,340.012,83.587
					L340.012,83.587z"/>
			</g>
			<g>
				<path style="fill:#EB9598;" d="M341.811,85.648c1.04-0.083,2.081-0.167,3.121-0.25c0.116-0.009,0.306-0.041,0.384-0.139
					c0.077-0.096-0.069-0.105-0.137-0.1c-1.04,0.083-2.08,0.166-3.121,0.25c-0.116,0.009-0.306,0.041-0.384,0.139
					C341.597,85.645,341.742,85.654,341.811,85.648L341.811,85.648z"/>
			</g>
			<g>
				<path style="fill:#EB9598;" d="M341.983,88.737c1.419-0.094,2.839-0.189,4.258-0.283c0.103-0.007,0.31-0.078,0.325-0.201
					c0.016-0.134-0.162-0.14-0.251-0.134c-1.419,0.094-2.839,0.188-4.258,0.283c-0.103,0.007-0.31,0.078-0.325,0.201
					C341.716,88.737,341.894,88.742,341.983,88.737L341.983,88.737z"/>
			</g>
			<g>
				<path style="fill:#EB9598;" d="M340.891,91.91c2.772,0.025,5.529-0.284,8.228-0.919c0.338-0.08,0.288-0.276-0.052-0.196
					c-2.557,0.602-5.179,0.891-7.806,0.868c-0.112-0.001-0.328,0.014-0.406,0.109C340.8,91.837,340.747,91.909,340.891,91.91
					L340.891,91.91z"/>
			</g>
			<g>
				<path style="fill:#EB9598;" d="M340.2,96.066c0.819,0.961,1.79,1.782,2.873,2.43c0.105,0.063,0.267,0.019,0.373-0.022
					c0.032-0.012,0.263-0.125,0.166-0.182c-1.083-0.648-2.054-1.469-2.873-2.43C340.638,95.744,340.094,95.942,340.2,96.066
					L340.2,96.066z"/>
			</g>
			<g>
				<path style="fill:#EB9598;" d="M338.074,97.212c0.589,1.909,1.57,3.682,2.873,5.196c0.133,0.155,0.684-0.052,0.533-0.228
					c-1.287-1.495-2.25-3.237-2.832-5.122C338.585,96.851,338.012,97.009,338.074,97.212L338.074,97.212z"/>
			</g>
			<g>
				<path style="fill:#EB9598;" d="M335.712,98.965c0.55,1.449,1.1,2.898,1.65,4.348c0.055,0.145,0.621-0.032,0.575-0.154
					c-0.55-1.449-1.1-2.898-1.65-4.348C336.232,98.666,335.665,98.843,335.712,98.965L335.712,98.965z"/>
			</g>
			<g>
				<path style="fill:#EB9598;" d="M332.969,99.418c0.253,1.568,0.507,3.136,0.76,4.704c0.031,0.19,0.608,0.055,0.575-0.154
					c-0.253-1.568-0.507-3.136-0.76-4.704C333.513,99.074,332.935,99.209,332.969,99.418L332.969,99.418z"/>
			</g>
			<g>
				<path style="fill:#EB9598;" d="M329.719,98.947c-0.093,2.121-0.011,4.244,0.245,6.351c0.018,0.151,0.597,0.03,0.575-0.154
					c-0.256-2.107-0.338-4.23-0.245-6.351C330.3,98.665,329.728,98.75,329.719,98.947L329.719,98.947z"/>
			</g>
			<g>
				<path style="fill:#EB9598;" d="M317.902,99.38c2.107-0.475,4.09-1.421,5.785-2.759c0.099-0.078,0.055-0.152-0.048-0.181
					c-0.125-0.035-0.309,0.032-0.406,0.109c-1.586,1.252-3.428,2.13-5.399,2.575c-0.075,0.017-0.282,0.095-0.253,0.205
					C317.61,99.442,317.833,99.396,317.902,99.38L317.902,99.38z"/>
			</g>
			<g>
				<path style="fill:#EB9598;" d="M316.964,96.258c1.733-0.337,3.399-0.943,4.952-1.78c0.098-0.053,0.15-0.163,0.048-0.234
					c-0.111-0.077-0.306-0.004-0.408,0.051c-1.464,0.79-3.041,1.344-4.672,1.661c-0.089,0.017-0.279,0.11-0.247,0.228
					C316.67,96.31,316.879,96.275,316.964,96.258L316.964,96.258z"/>
			</g>
			<g>
				<path style="fill:#EB9598;" d="M316.206,92.918c1.452-0.185,2.863-0.627,4.154-1.318c0.093-0.05,0.225-0.155,0.142-0.271
					c-0.076-0.106-0.29-0.081-0.387-0.029c-1.199,0.641-2.499,1.064-3.848,1.236c-0.117,0.015-0.303,0.079-0.32,0.218
					C315.929,92.89,316.104,92.931,316.206,92.918L316.206,92.918z"/>
			</g>
			<g>
				<path style="fill:#EB9598;" d="M315.791,89.054c1.04-0.084,2.08-0.168,3.12-0.252c0.125-0.01,0.302-0.089,0.317-0.232
					c0.015-0.143-0.152-0.197-0.266-0.188c-1.04,0.084-2.08,0.168-3.121,0.252c-0.125,0.01-0.302,0.089-0.317,0.232
					C315.511,89.009,315.677,89.063,315.791,89.054L315.791,89.054z"/>
			</g>
			<g>
				<path style="fill:#EB9598;" d="M314.681,86.701c1.763-0.731,3.705-0.922,5.579-0.577c0.295,0.054,0.577-0.367,0.194-0.437
					c-2.031-0.374-4.127-0.136-6.033,0.654c-0.115,0.048-0.21,0.194-0.132,0.31C314.374,86.777,314.564,86.75,314.681,86.701
					L314.681,86.701z"/>
			</g>
			<g>
				<path style="fill:#EB9598;" d="M319.274,77.298c0.653,2.058,1.988,3.841,3.764,5.064c0.153,0.105,0.684-0.121,0.457-0.278
					c-1.724-1.187-3.015-2.948-3.647-4.941C319.786,76.944,319.213,77.104,319.274,77.298L319.274,77.298z"/>
			</g>
			<g>
				<path style="fill:#EB9598;" d="M323.905,77.049c0.386,1.25,0.929,2.446,1.617,3.559c0.098,0.159,0.638-0.051,0.575-0.154
					c-0.687-1.113-1.23-2.309-1.617-3.559C324.431,76.738,323.859,76.899,323.905,77.049L323.905,77.049z"/>
			</g>
			<g>
				<path style="fill:#EB9598;" d="M326.894,75.181c0.203,1.354,0.579,2.675,1.119,3.933c0.08,0.187,0.645,0.009,0.575-0.154
					c-0.54-1.258-0.916-2.579-1.119-3.933C327.442,74.85,326.864,74.981,326.894,75.181L326.894,75.181z"/>
			</g>
			<g>
				<path style="fill:#EB9598;" d="M330.209,73.101c1.075,1.594,1.6,3.529,1.477,5.448c-0.015,0.228,0.562,0.115,0.574-0.074
					c0.127-1.984-0.405-3.949-1.517-5.597C330.638,72.723,330.08,72.91,330.209,73.101L330.209,73.101z"/>
			</g>
		</g>
		<path style="fill:#F3C6BC;" d="M333.922,71.035c-0.545-2.391-1.182-5.507-3.525-6.513c-1.355-0.582-2.94-0.277-4.383,0.158
			c-4.797,1.449-9.224,4.286-12.616,8.085l2.725,1.204c1.333,0.808,3.11,0.233,4.469-0.63c1.359-0.864,2.595-2.018,4.126-2.456
			c2.025-0.58,4.155,0.224,5.843,1.406c0.852,0.597,1.949,1.321,2.846,0.502C333.89,72.35,334.065,71.661,333.922,71.035z"/>
		<path style="fill:#F3C6BC;" d="M343.162,74.225c2.122-0.946,4.845-2.233,6.939-1.029c1.211,0.697,1.881,2.071,2.37,3.411
			c1.627,4.458,1.993,9.426,1.041,14.154l-2.461-1.381c-1.37-0.551-1.944-2.224-2.061-3.745c-0.118-1.52,0.055-3.113-0.483-4.523
			c-0.711-1.864-2.531-3.022-4.385-3.629c-0.937-0.307-2.108-0.726-1.997-1.871C342.183,74.996,342.606,74.473,343.162,74.225z"/>
		<g>
			<path style="fill:#BA767B;" d="M333.023,82.574c-2.517,0.148-4.951,1.365-6.718,3.145c-1.576,1.588-2.654,3.912-1.758,6.12
				c0.851,2.097,2.958,3.393,5.187,3.445c2.403,0.056,4.713-1.108,6.221-2.956c0.729-0.893,1.283-1.905,1.673-2.988
				c0.386-1.073,0.774-2.378-0.019-3.364c-0.733-0.911-1.962-1.139-3.067-1.103c-1.322,0.043-2.739,0.297-3.958,0.818
				c-1.983,0.848-3.676,2.991-2.538,5.164c1.005,1.918,3.485,2.229,5.183,1.039c0.963-0.675,1.635-1.905,1.317-3.097
				c-0.313-1.174-1.585-1.814-2.728-1.458c-0.93,0.29-1.851,1.484-1.14,2.417c0.628,0.823,1.917,0.711,2.605,0.054
				c0.197-0.188,0.089-0.412-0.133-0.498c-0.264-0.102-0.62,0.034-0.813,0.218c-0.387,0.369-1.173-1.035-0.346-1.464
				c0.4-0.207,0.888,0.156,1.125,0.458c0.319,0.407,0.395,0.948,0.306,1.447c-0.305,1.706-2.347,2.438-3.645,1.288
				c-1.224-1.085-1.199-2.858-0.111-4.02c0.619-0.661,1.453-1.03,2.317-1.253c0.961-0.248,2.103-0.468,3.094-0.316
				c0.83,0.127,1.65,0.651,1.812,1.526c0.166,0.9-0.281,1.975-0.638,2.782c-0.649,1.472-1.654,2.819-3.039,3.669
				c-1.494,0.917-3.444,1.188-5.062,0.431c-1.327-0.621-2.382-1.86-2.687-3.303c-0.845-3.989,3.983-7.238,7.436-7.441
				C333.518,83.298,333.813,82.527,333.023,82.574L333.023,82.574z"/>
		</g>
		<g>
			<path style="fill:#EC9A9B;" d="M340.463,108.636c-2.594,1.837-6.111,2.876-8.956,1.458c-1.992-0.993-1.47-3.027-1.996-5.19
				c-0.469-1.926-2.209-4.896-2.327-7.074c-0.018,0.799,0.012,1.597,0.081,2.379c0.303,3.433,1.213,6.812,2.674,9.934
				c0.401,0.856,0.896,1.747,1.744,2.165c0.584,0.287,1.259,0.31,1.91,0.297c4.778-0.091,9.51-1.811,13.232-4.809
				c1.615-1.301,3.114-3.031,3.463-5.02c-0.318,0.013-0.635,0.039-0.95,0.093C345.818,103.466,343.376,106.573,340.463,108.636z"/>
			<path style="fill:#EC9A9B;" d="M316.994,101.377c-1.404,0.384-2.985,0.569-4.248-0.155c-1.406-0.806-2.017-2.502-2.345-4.09
				c-0.41-1.988-0.547-4.033-0.405-6.058c0.133-1.901,0.506-3.838,0.053-5.689c-0.187-0.763-0.576-1.509-1.099-2.109
				c-0.026,0.025-0.055,0.045-0.08,0.071c-0.454,0.466-0.685,1.101-0.875,1.723c-1.395,4.571-1.227,9.603,0.469,14.071
				c0.861,2.267,2.326,4.571,4.656,5.241c2.059,0.592,4.247-0.246,6.135-1.258c2.951-1.583,5.642-3.642,7.959-6.059
				C323.481,97.051,320.596,100.392,316.994,101.377z"/>
		</g>
	</g>
	<g>
		<g>
			<path style="fill:#EEAFA5;" d="M200.697,83.767c-0.618-2.621-2.883-4.504-5.156-5.95c-3.552-2.26-7.465-3.942-11.541-4.994
				c1.194-0.579,2.342-1.256,3.416-1.99c3.577-2.446,6.721-5.523,9.243-9.046c0.692-0.966,1.364-2.058,1.3-3.245
				c-0.044-0.817-0.436-1.571-0.85-2.276c-3.041-5.181-7.84-9.31-13.417-11.544c-2.83-1.134-6.208-1.739-8.813-0.154
				c-2.301,1.4-3.388,4.138-4.058,6.746c-0.405,1.576-0.706,3.178-0.915,4.791c-1.144-2.75-2.609-5.367-4.374-7.766
				c-0.704-0.958-1.533-1.935-2.682-2.242c-0.79-0.211-1.629-0.073-2.428,0.102c-5.869,1.285-11.282,4.567-15.135,9.176
				c-1.956,2.339-3.579,5.363-2.879,8.331c0.618,2.621,2.883,4.504,5.156,5.95c3.552,2.26,7.465,3.942,11.541,4.994
				c-1.194,0.579-2.342,1.256-3.416,1.99c-3.577,2.446-6.721,5.523-9.243,9.046c-0.692,0.966-1.364,2.058-1.3,3.245
				c0.044,0.817,0.436,1.571,0.85,2.276c3.041,5.181,7.84,9.31,13.417,11.544c2.83,1.134,6.208,1.74,8.813,0.154
				c2.3-1.4,3.388-4.138,4.058-6.746c0.405-1.576,0.706-3.177,0.915-4.791c1.144,2.75,2.609,5.367,4.374,7.766
				c0.704,0.957,1.533,1.935,2.682,2.242c0.79,0.211,1.629,0.073,2.428-0.102c5.869-1.285,11.282-4.567,15.135-9.176
				C199.774,89.758,201.397,86.734,200.697,83.767z"/>
		</g>
		<g>
			<path style="fill:#EB9598;" d="M171.474,84.495c-5.869,0.633-11.14-3.612-11.773-9.481c-0.633-5.869,3.612-11.14,9.481-11.773
				c5.869-0.633,11.14,3.612,11.773,9.481C181.588,78.591,177.343,83.862,171.474,84.495z"/>
			<g>
				<path style="fill:#EB9598;" d="M182.806,77.778c1.736,1.045,3.472,2.09,5.208,3.135c0.157,0.094,0.375,0.067,0.518-0.044
					c0.113-0.087,0.197-0.279,0.039-0.374c-1.736-1.045-3.472-2.09-5.208-3.135c-0.157-0.094-0.375-0.067-0.518,0.043
					C182.732,77.491,182.648,77.683,182.806,77.778L182.806,77.778z"/>
			</g>
			<g>
				<path style="fill:#EB9598;" d="M181.472,80.306c2.274,1.202,4.333,2.767,6.1,4.638c0.188,0.199,0.877-0.073,0.668-0.294
					c-1.793-1.898-3.89-3.494-6.199-4.715C181.812,79.814,181.155,80.138,181.472,80.306L181.472,80.306z"/>
			</g>
			<g>
				<path style="fill:#EB9598;" d="M180.452,83.781c0.732,1.089,1.463,2.178,2.195,3.267c0.122,0.181,0.785-0.101,0.722-0.194
					c-0.732-1.089-1.463-2.178-2.195-3.267C181.053,83.407,180.39,83.688,180.452,83.781L180.452,83.781z"/>
			</g>
			<g>
				<path style="fill:#EB9598;" d="M177.2,85.794c0.977,1.498,1.954,2.995,2.931,4.493c0.139,0.212,0.839-0.028,0.669-0.289
					c-0.977-1.498-1.954-2.995-2.931-4.493C177.73,85.293,177.03,85.533,177.2,85.794L177.2,85.794z"/>
			</g>
			<g>
				<path style="fill:#EB9598;" d="M173.065,86.692c1.638,2.984,3.632,5.761,5.936,8.268c0.13,0.141,0.804-0.116,0.679-0.252
					c-2.288-2.49-4.265-5.245-5.893-8.209C173.684,86.31,172.997,86.568,173.065,86.692L173.065,86.692z"/>
			</g>
			<g>
				<path style="fill:#EB9598;" d="M168.115,88.56c-0.552,1.503-0.853,3.083-0.898,4.684c-0.004,0.141,0.716,0.038,0.722-0.194
					c0.044-1.574,0.348-3.129,0.891-4.607C168.89,88.281,168.189,88.36,168.115,88.56L168.115,88.56z"/>
			</g>
			<g>
				<path style="fill:#EB9598;" d="M165.601,86.847c-1.751,1.843-3.102,4.02-3.97,6.41c-0.09,0.249,0.633,0.161,0.723-0.087
					c0.835-2.302,2.141-4.419,3.828-6.194C166.476,86.668,165.773,86.666,165.601,86.847L165.601,86.847z"/>
			</g>
			<g>
				<path style="fill:#EB9598;" d="M162.188,85.424c-1.25,1.495-2.5,2.99-3.75,4.485c-0.102,0.122,0.09,0.135,0.174,0.131
					c0.143-0.007,0.383-0.057,0.483-0.176c1.25-1.495,2.5-2.99,3.75-4.485c0.102-0.122-0.09-0.135-0.174-0.131
					C162.527,85.255,162.287,85.305,162.188,85.424L162.188,85.424z"/>
			</g>
			<g>
				<path style="fill:#EB9598;" d="M160.043,82.618c-1.563,1.243-3.126,2.486-4.689,3.729c-0.123,0.098-0.069,0.216,0.067,0.25
					c0.168,0.042,0.38-0.033,0.511-0.137c1.563-1.243,3.126-2.486,4.688-3.729c0.123-0.098,0.069-0.216-0.067-0.25
					C160.385,82.439,160.174,82.513,160.043,82.618L160.043,82.618z"/>
			</g>
			<g>
				<path style="fill:#EB9598;" d="M158.631,78.744c-2.405,1.215-4.706,2.628-6.878,4.221c-0.126,0.092-0.072,0.175,0.055,0.207
					c0.156,0.039,0.386-0.045,0.511-0.137c2.131-1.563,4.385-2.945,6.744-4.136c0.106-0.054,0.205-0.156,0.076-0.235
					C159.01,78.586,158.747,78.686,158.631,78.744L158.631,78.744z"/>
			</g>
			<g>
				<path style="fill:#EB9598;" d="M150.619,65.886c1.769,1.964,3.968,3.51,6.413,4.517c0.154,0.063,0.372,0.007,0.51-0.075
					c0.086-0.051,0.23-0.189,0.071-0.255c-2.414-0.994-4.572-2.52-6.319-4.459C151.14,65.444,150.452,65.701,150.619,65.886
					L150.619,65.886z"/>
			</g>
			<g>
				<path style="fill:#EB9598;" d="M153.487,62.923c1.406,1.658,3.06,3.09,4.897,4.251c0.208,0.132,0.872-0.17,0.572-0.359
					c-1.803-1.14-3.42-2.553-4.8-4.18C153.989,62.437,153.296,62.697,153.487,62.923L153.487,62.923z"/>
			</g>
			<g>
				<path style="fill:#EB9598;" d="M156.772,60.098c1.068,1.442,2.4,2.68,3.913,3.644c0.149,0.095,0.38,0.043,0.516-0.053
					c0.115-0.081,0.197-0.244,0.048-0.339c-1.479-0.942-2.768-2.148-3.812-3.557C157.261,59.555,156.568,59.821,156.772,60.098
					L156.772,60.098z"/>
			</g>
			<g>
				<path style="fill:#EB9598;" d="M160.771,57.254c0.733,1.088,1.465,2.177,2.198,3.265c0.182,0.27,0.871-0.007,0.661-0.318
					c-0.732-1.088-1.465-2.177-2.198-3.265C161.251,56.666,160.562,56.943,160.771,57.254L160.771,57.254z"/>
			</g>
			<g>
				<path style="fill:#EB9598;" d="M162.593,54.493c1.922,1.506,3.376,3.556,4.164,5.867c0.117,0.344,0.838,0.146,0.722-0.194
					c-0.821-2.408-2.331-4.535-4.333-6.104C162.879,53.853,162.258,54.231,162.593,54.493L162.593,54.493z"/>
			</g>
			<g>
				<path style="fill:#EB9598;" d="M175.859,53.987c-1.854,1.987-3.024,4.536-3.274,7.246c-0.027,0.288,0.7,0.153,0.722-0.091
					c0.242-2.614,1.337-5.115,3.131-7.037C176.726,53.797,176.024,53.811,175.859,53.987L175.859,53.987z"/>
			</g>
			<g>
				<path style="fill:#EB9598;" d="M178.942,58.983c-1.144,1.205-2.129,2.552-2.934,4.006c-0.071,0.129,0.253,0.107,0.297,0.101
					c0.142-0.022,0.343-0.078,0.419-0.215c0.789-1.424,1.757-2.74,2.878-3.921c0.116-0.122-0.101-0.154-0.18-0.152
					C179.264,58.805,179.056,58.863,178.942,58.983L178.942,58.983z"/>
			</g>
			<g>
				<path style="fill:#EB9598;" d="M182.872,61.046c-1.376,1.068-2.611,2.313-3.669,3.697c-0.103,0.134,0.088,0.192,0.191,0.193
					c0.16,0.001,0.376-0.058,0.478-0.192c1.032-1.35,2.232-2.557,3.575-3.599c0.12-0.094,0.074-0.206-0.063-0.235
					C183.215,60.874,183.005,60.943,182.872,61.046L182.872,61.046z"/>
			</g>
			<g>
				<path style="fill:#EB9598;" d="M187.17,63.399c-1.059,2.116-2.798,3.878-4.938,4.902c-0.095,0.046-0.294,0.155-0.194,0.284
					c0.09,0.117,0.374,0.054,0.477,0.004c2.286-1.093,4.189-2.908,5.327-5.179C187.993,63.107,187.274,63.191,187.17,63.399
					L187.17,63.399z"/>
			</g>
		</g>
		<path style="fill:#F3C6BC;" d="M191.77,65.979c2.286-2.069,5.309-4.686,4.969-7.874c-0.197-1.844-1.506-3.394-2.872-4.707
			c-4.54-4.366-10.377-7.473-16.629-8.852l0.358,3.729c-0.065,1.958,1.659,3.553,3.442,4.511c1.783,0.958,3.809,1.602,5.233,3.011
			c1.882,1.862,2.313,4.693,2.056,7.271c-0.13,1.302-0.249,2.949,1.201,3.429C190.308,66.754,191.171,66.521,191.77,65.979z"/>
		<path style="fill:#F3C6BC;" d="M193.96,78.071c2.343,1.744,5.431,3.936,5.399,6.973c-0.018,1.756-1.112,3.336-2.281,4.698
			c-3.885,4.528-9.106,7.987-14.875,9.854l-0.001-3.548c-0.239-1.84,1.242-3.5,2.836-4.565c1.594-1.065,3.446-1.856,4.66-3.313
			c1.606-1.926,1.755-4.634,1.279-7.041c-0.24-1.216-0.502-2.758,0.822-3.341C192.512,77.473,193.347,77.614,193.96,78.071z"/>
		<g>
			<path style="fill:#BA767B;" d="M178.778,71.959c-2.906-4.538-11.115-8.095-15.413-3.377c-1.846,2.027-2.27,5.082-1.114,7.553
				c1.233,2.637,3.777,4.397,6.591,4.975c1.629,0.334,3.311,0.319,4.945,0.026c1.368-0.245,2.987-0.625,3.769-1.899
				c0.763-1.244,0.445-2.754-0.223-3.957c-0.755-1.359-1.835-2.668-3.031-3.661c-2.192-1.82-5.737-2.31-7.702,0.129
				c-1.729,2.146-0.951,5.213,1.597,6.274c1.36,0.566,3.016,0.404,4.206-0.485c1.127-0.841,1.694-2.604,0.616-3.732
				c-0.893-0.934-2.621-0.868-3.512,0.035c-0.913,0.925-0.501,2.469,0.724,2.844c0.556,0.17,1.702-0.64,0.854-0.899
				c-0.845-0.259-0.842-2.003,0.211-1.612c1.149,0.428,1.004,2.106,0.193,2.775c-1.722,1.42-4.142-0.605-4.375-2.414
				c-0.123-0.957,0.233-1.975,0.887-2.676c0.817-0.875,1.984-0.982,3.09-0.646c2.11,0.641,3.898,2.793,4.913,4.677
				c0.5,0.928,0.807,2.168,0.24,3.141c-0.576,0.987-2.081,1.15-3.109,1.276c-2.311,0.283-4.718-0.103-6.675-1.413
				c-3.288-2.2-4.808-7.144-1.68-10.189c1.859-1.809,4.732-1.484,6.962-0.638c2.31,0.877,4.37,2.413,5.707,4.502
				C177.762,73.057,179.153,72.544,178.778,71.959L178.778,71.959z"/>
		</g>
		<g>
			<path style="fill:#EC9A9B;" d="M154.579,96.296c-3.61-1.713-6.914-4.929-7.112-8.92c-0.138-2.795,2.413-3.475,4.46-5.383
				c1.823-1.7,4.006-5.436,6.321-6.906c-0.887,0.473-1.744,0.996-2.558,1.553c-3.577,2.446-6.721,5.523-9.243,9.046
				c-0.692,0.966-1.364,2.058-1.3,3.245c0.044,0.817,0.436,1.571,0.85,2.276c3.041,5.181,7.84,9.31,13.417,11.544
				c2.42,0.97,5.239,1.548,7.634,0.706c-0.21-0.34-0.434-0.672-0.686-0.984C163.541,98.983,158.633,98.219,154.579,96.296z"/>
			<path style="fill:#EC9A9B;" d="M148.089,66.101c-1.285-1.302-2.462-2.922-2.445-4.752c0.019-2.038,1.501-3.751,3.04-5.088
				c1.927-1.673,4.084-3.082,6.391-4.174c2.166-1.025,4.519-1.808,6.269-3.444c0.722-0.675,1.299-1.56,1.635-2.503
				c-0.043-0.014-0.083-0.033-0.127-0.044c-0.79-0.211-1.629-0.073-2.428,0.102c-5.869,1.285-11.282,4.567-15.135,9.176
				c-1.956,2.339-3.579,5.363-2.879,8.331c0.618,2.621,2.884,4.504,5.156,5.95c3.552,2.26,7.465,3.942,11.541,4.994
				C156.824,70.548,151.386,69.442,148.089,66.101z"/>
		</g>
	</g>
	<g>
		<g>
			<path style="fill:#EEAFA5;" d="M301.234,55.477c-2.583-0.764-5.341,0.269-7.724,1.524c-3.724,1.962-7.126,4.526-10.062,7.543
				c0.09-1.324,0.072-2.657-0.033-3.953c-0.349-4.319-1.461-8.575-3.268-12.514c-0.496-1.08-1.11-2.205-2.172-2.738
				c-0.731-0.367-1.58-0.401-2.398-0.392c-6.008,0.07-11.973,2.188-16.68,5.922c-2.389,1.895-4.59,4.528-4.506,7.575
				c0.075,2.692,1.912,4.995,3.844,6.871c1.167,1.133,2.409,2.189,3.706,3.171c-2.955-0.371-5.954-0.398-8.913-0.056
				c-1.181,0.136-2.441,0.371-3.277,1.216c-0.575,0.581-0.871,1.378-1.116,2.158c-1.796,5.733-1.632,12.061,0.458,17.694
				c1.061,2.859,2.881,5.768,5.805,6.633c2.583,0.764,5.341-0.269,7.724-1.524c3.724-1.962,7.126-4.526,10.062-7.543
				c-0.09,1.324-0.072,2.657,0.033,3.953c0.349,4.319,1.461,8.575,3.268,12.513c0.496,1.08,1.11,2.205,2.172,2.738
				c0.731,0.367,1.58,0.401,2.398,0.392c6.008-0.07,11.973-2.188,16.68-5.922c2.389-1.895,4.591-4.527,4.506-7.575
				c-0.074-2.692-1.912-4.995-3.844-6.871c-1.168-1.133-2.409-2.189-3.706-3.171c2.955,0.371,5.954,0.397,8.913,0.056
				c1.181-0.136,2.441-0.371,3.277-1.216c0.576-0.581,0.871-1.378,1.116-2.158c1.796-5.733,1.632-12.061-0.458-17.694
				C305.978,59.251,304.158,56.342,301.234,55.477z"/>
		</g>
		<g>
			
				<ellipse transform="matrix(0.9519 -0.3063 0.3063 0.9519 -10.2228 88.7329)" style="fill:#EB9598;" cx="277.573" cy="76.934" rx="10.689" ry="10.689"/>
			<g>
				<path style="fill:#EB9598;" d="M287.275,67.909c1.768-0.989,3.537-1.978,5.305-2.966c0.428-0.239,0.041-0.628-0.32-0.427
					c-1.769,0.989-3.537,1.978-5.306,2.966C286.527,67.721,286.914,68.11,287.275,67.909L287.275,67.909z"/>
			</g>
			<g>
				<path style="fill:#EB9598;" d="M288.9,70.239c2.137-1.354,4.477-2.346,6.936-2.943c0.118-0.029,0.349-0.142,0.307-0.299
					c-0.043-0.16-0.303-0.132-0.415-0.105c-2.581,0.627-5.043,1.674-7.286,3.096c-0.12,0.076-0.19,0.215-0.056,0.311
					C288.523,70.396,288.776,70.317,288.9,70.239L288.9,70.239z"/>
			</g>
			<g>
				<path style="fill:#EB9598;" d="M291.142,72.85c1.309-0.095,2.617-0.19,3.926-0.285c0.145-0.011,0.386-0.053,0.483-0.174
					c0.097-0.121-0.086-0.131-0.172-0.125c-1.309,0.095-2.617,0.19-3.926,0.285c-0.145,0.011-0.386,0.053-0.483,0.174
					C290.873,72.847,291.056,72.856,291.142,72.85L291.142,72.85z"/>
			</g>
			<g>
				<path style="fill:#EB9598;" d="M291.33,76.733c1.785-0.105,3.57-0.21,5.356-0.316c0.129-0.008,0.39-0.098,0.408-0.253
					c0.02-0.169-0.204-0.175-0.316-0.168c-1.785,0.105-3.57,0.21-5.355,0.316c-0.129,0.008-0.39,0.098-0.408,0.253
					C290.994,76.734,291.219,76.74,291.33,76.733L291.33,76.733z"/>
			</g>
			<g>
				<path style="fill:#EB9598;" d="M289.927,80.714c3.485,0.058,6.953-0.308,10.352-1.08c0.427-0.097,0.362-0.344-0.066-0.246
					c-3.221,0.732-6.52,1.07-9.822,1.015c-0.141-0.002-0.413,0.019-0.511,0.137C289.812,80.623,289.747,80.711,289.927,80.714
					L289.927,80.714z"/>
			</g>
			<g>
				<path style="fill:#EB9598;" d="M289.019,85.934c1.021,1.215,2.234,2.257,3.589,3.081c0.131,0.08,0.336,0.023,0.469-0.027
					c0.041-0.016,0.33-0.156,0.209-0.229c-1.356-0.825-2.569-1.866-3.589-3.081C289.571,85.528,288.886,85.775,289.019,85.934
					L289.019,85.934z"/>
			</g>
			<g>
				<path style="fill:#EB9598;" d="M286.336,87.354c0.723,2.405,1.939,4.643,3.564,6.558c0.166,0.196,0.859-0.063,0.67-0.287
					c-1.604-1.891-2.798-4.09-3.511-6.465C286.98,86.9,286.259,87.098,286.336,87.354L286.336,87.354z"/>
			</g>
			<g>
				<path style="fill:#EB9598;" d="M283.35,89.536c0.678,1.827,1.355,3.654,2.033,5.481c0.067,0.181,0.78-0.038,0.722-0.194
					c-0.678-1.827-1.355-3.654-2.033-5.481C284.005,89.161,283.292,89.381,283.35,89.536L283.35,89.536z"/>
			</g>
			<g>
				<path style="fill:#EB9598;" d="M279.897,90.08c0.304,1.974,0.608,3.947,0.912,5.921c0.037,0.238,0.763,0.07,0.723-0.194
					c-0.304-1.974-0.608-3.947-0.912-5.921C280.583,89.648,279.857,89.816,279.897,90.08L279.897,90.08z"/>
			</g>
			<g>
				<path style="fill:#EB9598;" d="M275.816,89.457c-0.136,2.665-0.053,5.335,0.249,7.987c0.022,0.189,0.749,0.039,0.722-0.194
					c-0.302-2.652-0.385-5.321-0.249-7.987C276.547,89.104,275.829,89.209,275.816,89.457L275.816,89.457z"/>
			</g>
			<g>
				<path style="fill:#EB9598;" d="M260.956,89.888c2.653-0.578,5.154-1.75,7.298-3.416c0.126-0.098,0.069-0.191-0.061-0.228
					c-0.158-0.044-0.387,0.041-0.511,0.137c-2.006,1.559-4.33,2.644-6.812,3.185c-0.095,0.021-0.355,0.12-0.318,0.258
					C260.59,89.966,260.869,89.907,260.956,89.888L260.956,89.888z"/>
			</g>
			<g>
				<path style="fill:#EB9598;" d="M259.708,85.973c2.217-0.414,4.345-1.156,6.339-2.212c0.124-0.065,0.189-0.206,0.06-0.295
					c-0.141-0.097-0.384-0.004-0.512,0.064c-1.814,0.961-3.774,1.647-5.792,2.025c-0.129,0.024-0.388,0.087-0.409,0.252
					C259.374,85.965,259.597,85.994,259.708,85.973L259.708,85.973z"/>
			</g>
			<g>
				<path style="fill:#EB9598;" d="M258.885,81.748c1.827-0.219,3.604-0.763,5.234-1.619c0.118-0.062,0.283-0.196,0.179-0.341
					c-0.096-0.134-0.363-0.101-0.486-0.036c-1.514,0.795-3.152,1.313-4.85,1.516c-0.147,0.018-0.38,0.101-0.403,0.274
					C258.537,81.714,258.757,81.764,258.885,81.748L258.885,81.748z"/>
			</g>
			<g>
				<path style="fill:#EB9598;" d="M258.4,76.887c1.308-0.096,2.617-0.192,3.925-0.288c0.157-0.011,0.379-0.113,0.398-0.292
					c0.019-0.181-0.191-0.247-0.334-0.236c-1.308,0.096-2.617,0.192-3.925,0.288c-0.157,0.012-0.38,0.113-0.398,0.292
					C258.047,76.832,258.257,76.898,258.4,76.887L258.4,76.887z"/>
			</g>
			<g>
				<path style="fill:#EB9598;" d="M257.026,73.918c2.222-0.902,4.667-1.122,7.019-0.671c0.371,0.071,0.724-0.457,0.244-0.549
					c-2.551-0.489-5.186-0.208-7.59,0.768c-0.145,0.059-0.264,0.244-0.166,0.389C256.64,74.013,256.879,73.977,257.026,73.918
					L257.026,73.918z"/>
			</g>
			<g>
				<path style="fill:#EB9598;" d="M262.888,62.143c0.794,2.566,2.437,4.828,4.638,6.368c0.138,0.097,0.329,0.071,0.478,0.007
					c0.062-0.027,0.33-0.193,0.193-0.289c-2.176-1.523-3.801-3.741-4.586-6.279C263.533,61.698,262.812,61.898,262.888,62.143
					L262.888,62.143z"/>
			</g>
			<g>
				<path style="fill:#EB9598;" d="M268.712,61.873c0.474,1.575,1.146,3.083,1.999,4.489c0.122,0.2,0.802-0.063,0.722-0.194
					c-0.854-1.406-1.525-2.914-1.999-4.489C269.375,61.484,268.655,61.683,268.712,61.873L268.712,61.873z"/>
			</g>
			<g>
				<path style="fill:#EB9598;" d="M272.487,59.554c0.243,1.704,0.703,3.368,1.37,4.955c0.099,0.235,0.809,0.013,0.722-0.194
					c-0.667-1.587-1.128-3.251-1.37-4.955C273.177,59.138,272.451,59.301,272.487,59.554L272.487,59.554z"/>
			</g>
			<g>
				<path style="fill:#EB9598;" d="M276.674,56.969c1.337,2.014,1.977,4.452,1.805,6.863c-0.02,0.286,0.705,0.145,0.722-0.093
					c0.178-2.493-0.473-4.968-1.855-7.051C277.215,56.493,276.514,56.728,276.674,56.969L276.674,56.969z"/>
			</g>
		</g>
		<path style="fill:#F3C6BC;" d="M281.36,54.404c-0.663-3.011-1.434-6.934-4.371-8.221c-1.698-0.744-3.694-0.376-5.511,0.158
			c-6.043,1.776-11.637,5.302-15.936,10.046l3.415,1.54c1.668,1.028,3.907,0.322,5.624-0.751c1.716-1.073,3.281-2.512,5.21-3.049
			c2.551-0.711,5.222,0.32,7.333,1.822c1.066,0.759,2.437,1.679,3.573,0.658C281.308,56.057,281.534,55.193,281.36,54.404z"/>
		<path style="fill:#F3C6BC;" d="M292.946,58.501c2.676-1.169,6.112-2.762,8.733-1.228c1.516,0.887,2.345,2.621,2.948,4.311
			c2.004,5.619,2.417,11.868,1.176,17.804l-3.081-1.759c-1.716-0.706-2.423-2.814-2.556-4.727c-0.134-1.913,0.098-3.913-0.565-5.69
			c-0.876-2.35-3.153-3.823-5.479-4.604c-1.175-0.395-2.644-0.933-2.493-2.371C291.708,59.461,292.245,58.807,292.946,58.501z"/>
		<g>
			<path style="fill:#BA767B;" d="M280.119,68.901c-3.166,0.163-6.235,1.675-8.472,3.896c-1.996,1.982-3.371,4.894-2.265,7.679
				c1.05,2.642,3.691,4.294,6.491,4.376c3.022,0.088,5.932-1.354,7.847-3.664c0.923-1.114,1.633-2.384,2.13-3.741
				c0.494-1.347,0.993-2.981,0.004-4.229c-0.912-1.151-2.458-1.449-3.847-1.411c-1.665,0.045-3.442,0.349-4.983,0.995
				c-2.499,1.047-4.648,3.733-3.235,6.471c1.25,2.423,4.359,2.826,6.507,1.346c1.218-0.839,2.069-2.383,1.681-3.883
				c-0.382-1.478-1.979-2.295-3.417-1.852c-1.17,0.36-2.337,1.853-1.45,3.032c0.785,1.043,2.403,0.902,3.273,0.083
				c0.25-0.235,0.11-0.519-0.168-0.626c-0.334-0.129-0.777,0.044-1.022,0.274c-0.479,0.45-1.477-1.323-0.418-1.851
				c0.504-0.251,1.118,0.216,1.41,0.595c0.396,0.516,0.486,1.196,0.369,1.823c-0.402,2.145-2.979,3.034-4.597,1.574
				c-1.525-1.375-1.482-3.606-0.098-5.054c0.788-0.824,1.837-1.277,2.927-1.55c1.209-0.303,2.65-0.568,3.893-0.366
				c1.042,0.169,2.068,0.837,2.262,1.94c0.2,1.134-0.374,2.479-0.829,3.491c-0.829,1.842-2.107,3.531-3.857,4.582
				c-1.891,1.135-4.342,1.457-6.369,0.486c-1.663-0.796-2.975-2.36-3.346-4.179c-0.489-2.396,0.867-4.67,2.564-6.247
				c1.867-1.735,4.302-2.901,6.859-3.033C280.742,69.817,281.111,68.85,280.119,68.901L280.119,68.901z"/>
		</g>
		<g>
			<path style="fill:#EC9A9B;" d="M289.232,101.736c-3.278,2.285-7.71,3.558-11.273,1.749c-2.495-1.267-1.82-3.819-2.461-6.543
				c-0.571-2.426-2.732-6.175-2.86-8.915c-0.029,1.005,0,2.008,0.079,2.992c0.349,4.319,1.461,8.575,3.268,12.513
				c0.496,1.08,1.11,2.205,2.172,2.738c0.731,0.367,1.58,0.401,2.398,0.392c6.008-0.07,11.973-2.188,16.68-5.922
				c2.042-1.62,3.943-3.781,4.4-6.278c-0.4,0.013-0.798,0.044-1.195,0.108C296.011,95.287,292.913,99.17,289.232,101.736z"/>
			<path style="fill:#EC9A9B;" d="M259.796,92.39c-1.768,0.47-3.759,0.688-5.339-0.235c-1.76-1.027-2.513-3.164-2.909-5.163
				c-0.497-2.504-0.649-5.075-0.453-7.62c0.185-2.389,0.672-4.821,0.12-7.152c-0.228-0.962-0.71-1.902-1.362-2.662
				c-0.033,0.031-0.07,0.056-0.102,0.089c-0.575,0.581-0.871,1.378-1.116,2.158c-1.796,5.733-1.632,12.061,0.458,17.694
				c1.061,2.859,2.881,5.768,5.805,6.633c2.583,0.764,5.341-0.269,7.724-1.524c3.724-1.962,7.126-4.526,10.062-7.543
				C267.99,87.012,264.332,91.186,259.796,92.39z"/>
		</g>
	</g>
</g>
</svg>
